<svg width="26" height="39" viewBox="0 0 26 39" xmlns="http://www.w3.org/2000/svg"><g fill="#55EDA5" fill-rule="evenodd"><path d="M13.14 39.1l8.124-14.04c1.982-3.002 1.306-5.555-2.028-7.659-5.001-3.155-14.797-6.604-17.854-11.426C-.23 9.54.126 12.185 2.45 13.91c3.485 2.587 13.922 8.627 12.989 10.471L4.316 17.646c3.722 5.483 6.59 9.923 8.605 13.321.974 1.642 1.047 4.353.219 8.133z"/><path d="M5.777.44c3.145 3.922 7.86 6.91 14.147 8.966 6.286 2.055 7.38 6.1 3.283 12.135-.023-2.86-2.647-5.532-7.87-8.015-3.005-1.429-8.307-4.12-9.56-6.651-.69-1.391-.69-3.536 0-6.435z"/></g></svg>