<svg width="287" height="167" viewBox="0 0 287 167" fill="none" xmlns="http://www.w3.org/2000/svg"><path fill-rule="evenodd" clip-rule="evenodd" d="M25.247 16.907a4 4 0 002.86 2.86L29 20l-.893.233a4 4 0 00-2.86 2.86l-.236.907-.236-.901a4 4 0 00-2.86-2.86L21 20l.916-.24a4 4 0 002.859-2.859l.236-.901.236.907zM42.038 15.114a4 4 0 002.859 2.86L45 18l-.103.027a4 4 0 00-2.86 2.86l-.03.113-.028-.11a4 4 0 00-2.859-2.859L39 18l.12-.031a4 4 0 002.86-2.86l.028-.109.03.114zM34.877 3.288a4 4 0 002.86 2.86L41 7l-3.264.852a4 4 0 00-2.859 2.86L34.018 14l-.856-3.278a4 4 0 00-2.859-2.86L27 7l3.303-.863a4 4 0 002.86-2.859L34.017 0l.86 3.288z" fill="#FFCF55"/><path d="M57.804 77.318c14.171-34.062 49.729-17.03 88.334-30.45 38.604-13.418 110.54 10.839 131.064 30.45 20.524 19.612 5.891 57.215-17.091 67.608-22.982 10.394-177.874 18.58-205.24 0-27.365-18.579-11.239-33.546 2.933-67.608z" fill="#E1EFFF" fill-opacity=".1"/><path fill-rule="evenodd" clip-rule="evenodd" d="M84.35.066c-13.352 0-24.178 10.826-24.178 24.179v141.316h146.079V24.245c0-13.354-10.825-24.179-24.178-24.179H84.351zM65.72 24.104c0-10.212 8.278-18.49 18.49-18.49h20.341v4.622a5.547 5.547 0 005.547 5.547h46.228a5.547 5.547 0 005.547-5.547V5.613h19.415c10.213 0 18.491 8.279 18.491 18.491V165.56H65.719V24.104z" fill="#162344"/><path fill-rule="evenodd" clip-rule="evenodd" d="M84.698 5.378c-10.207 0-18.481 8.29-18.481 18.518v141.665h133.99V23.896c0-10.227-8.275-18.518-18.482-18.518H162.32v4.63a5.55 5.55 0 01-5.545 5.555h-46.203a5.55 5.55 0 01-5.544-5.556v-4.63h-20.33z" fill="#fff"/><mask id="a" style="mask-type:alpha" maskUnits="userSpaceOnUse" x="66" y="5" width="135" height="161"><path fill-rule="evenodd" clip-rule="evenodd" d="M84.698 5.379c-10.207 0-18.481 8.29-18.481 18.518v141.665h133.989V23.897c0-10.227-8.274-18.518-18.481-18.518H162.32v4.63a5.55 5.55 0 01-5.545 5.555h-46.203a5.55 5.55 0 01-5.544-5.556v-4.63h-20.33z" fill="#fff"/></mask><g mask="url(#a)"><path d="M189.018 28.517L187 26.499M184.048 27.584a4.036 4.036 0 100-8.072 4.036 4.036 0 000 8.072z" stroke="#212121" stroke-width="1.5" stroke-miterlimit="10" stroke-linecap="round" stroke-linejoin="round"/><rect x="74.276" y="142.39" width="33.971" height="33.971" rx="2.08" fill="#F0F0F0"/><rect x="110.974" y="142.391" width="33.971" height="33.971" rx="2.08" fill="#F0F0F0"/><rect x="147.671" y="142.391" width="33.971" height="33.971" rx="2.08" fill="#F0F0F0"/><rect x="184.369" y="142.391" width="33.971" height="33.971" rx="2.08" fill="#F0F0F0"/><rect x="75.284" y="46.685" width="26.193" height="6.045" rx="1.04" fill="#F5F5F5"/><rect x="75.284" y="57.768" width="114.848" height="62.461" rx="4.16" fill="#D0E5F8"/><path d="M193.154 61.927a4.16 4.16 0 014.16-4.16h4.875c.574 0 1.04.466 1.04 1.04v60.382a1.04 1.04 0 01-1.04 1.04h-4.875a4.16 4.16 0 01-4.16-4.16V61.927z" fill="#9AE0F5"/><rect x="75.284" y="130.304" width="26.193" height="6.045" rx="1" fill="#F5F5F5"/></g><path d="M82.18 38.676l-1.272 4.997h-1.206l-.677-2.625a23.169 23.169 0 01-.195-.91 4.85 4.85 0 01-.037-.26c-.007.065-.021.15-.042.257-.018.107-.04.221-.064.342a12.588 12.588 0 01-.123.578l-.674 2.618h-1.203l-1.275-4.997h1.043l.639 2.727.061.294c.025.114.05.234.072.36.025.122.047.242.065.358.02.114.035.213.044.297l.045-.3a10.628 10.628 0 01.127-.687c.022-.103.043-.186.06-.25l.729-2.8h1.001l.728 2.8c.016.062.035.145.055.25a10.628 10.628 0 01.13.69c.02.114.035.213.044.297a15.157 15.157 0 01.246-1.309l.636-2.727h1.043zm3.88 3.08c0 .318-.044.6-.13.847a1.67 1.67 0 01-.373.625 1.567 1.567 0 01-.588.383c-.228.087-.485.13-.772.13-.27 0-.517-.043-.742-.13a1.649 1.649 0 01-.585-.383 1.784 1.784 0 01-.383-.625 2.487 2.487 0 01-.133-.848c0-.424.075-.782.226-1.076.15-.294.364-.518.642-.67.278-.153.61-.23.995-.23.358 0 .674.077.95.23.278.152.496.376.653.67.16.294.24.652.24 1.076zm-2.643 0c0 .25.028.46.082.632.055.17.14.3.257.386.116.087.267.13.454.13a.72.72 0 00.448-.13.73.73 0 00.253-.386c.055-.171.082-.382.082-.633 0-.253-.027-.462-.082-.629a.71.71 0 00-.253-.379.756.756 0 00-.455-.126c-.275 0-.476.094-.601.283-.123.19-.185.473-.185.851zm5.496-1.976c.053 0 .113.003.182.01.07.005.127.011.17.02l-.078.978a.627.627 0 00-.147-.024 1.467 1.467 0 00-.554.041.96.96 0 00-.338.168.79.79 0 00-.24.3 1.08 1.08 0 00-.085.455v1.945h-1.042v-3.821h.79l.153.642h.051c.075-.13.169-.248.28-.355.114-.11.243-.196.387-.26.146-.066.303-.1.471-.1zm1.949-1.425v2.378c0 .144-.006.288-.017.431a27.18 27.18 0 01-.038.43h.014c.07-.1.142-.199.215-.297.075-.098.155-.192.24-.283l1.07-1.162h1.175l-1.518 1.657 1.61 2.164H92.41l-1.1-1.549-.448.36v1.189h-1.043v-5.319h1.043zm6.63 3.4c0 .32-.043.602-.13.848a1.67 1.67 0 01-.372.625 1.566 1.566 0 01-.588.383c-.227.087-.485.13-.772.13-.269 0-.516-.043-.742-.13a1.65 1.65 0 01-.584-.383 1.785 1.785 0 01-.383-.625 2.487 2.487 0 01-.133-.848c0-.424.075-.782.225-1.076.15-.294.365-.518.643-.67.278-.153.61-.23.994-.23.358 0 .675.077.95.23.279.152.496.376.654.67.159.294.239.652.239 1.076zm-2.641 0c0 .251.027.462.082.633.054.17.14.3.256.386.116.087.268.13.455.13a.72.72 0 00.447-.13.73.73 0 00.253-.386c.055-.171.082-.382.082-.633 0-.253-.027-.462-.082-.629a.71.71 0 00-.253-.379.756.756 0 00-.454-.126c-.276 0-.476.094-.602.283-.123.19-.184.473-.184.851zm6.87-1.903v3.82h-.8l-.14-.488h-.055a1.05 1.05 0 01-.307.318 1.34 1.34 0 01-.407.181 1.819 1.819 0 01-.462.058c-.273 0-.511-.048-.714-.143a1.064 1.064 0 01-.475-.455c-.112-.205-.167-.472-.167-.8v-2.491h1.042v2.232c0 .273.05.48.147.618.098.14.254.209.468.209.212 0 .379-.048.499-.144a.778.778 0 00.253-.427c.05-.19.075-.42.075-.69v-1.798h1.043zm2.564 3.059c.113 0 .224-.012.331-.035.109-.022.218-.05.325-.085v.776c-.112.05-.251.091-.417.123a2.648 2.648 0 01-.54.051 1.64 1.64 0 01-.615-.11.878.878 0 01-.428-.385c-.102-.185-.154-.441-.154-.77v-1.842h-.499v-.44l.575-.35.3-.806h.667v.814h1.07v.782h-1.07v1.843c0 .145.041.255.123.328a.5.5 0 00.332.106zm5.175-3.425c-.203 0-.383.04-.54.12-.155.077-.286.19-.393.338a1.638 1.638 0 00-.24.536c-.054.21-.082.446-.082.708 0 .353.044.655.13.906.089.248.226.438.41.57.185.13.423.195.715.195.202 0 .405-.022.608-.068a5.88 5.88 0 00.667-.195v.889a3.218 3.218 0 01-.653.195 3.854 3.854 0 01-.721.061c-.515 0-.939-.106-1.272-.318a1.921 1.921 0 01-.735-.895c-.159-.385-.239-.834-.239-1.347 0-.378.051-.724.154-1.039.102-.314.253-.587.451-.817.198-.23.443-.408.735-.533a2.522 2.522 0 011.005-.188c.248 0 .496.032.745.096.25.061.49.147.718.256l-.342.861a5.658 5.658 0 00-.564-.232 1.682 1.682 0 00-.557-.1zm5.592 2.27c0 .318-.044.6-.13.847a1.57 1.57 0 01-.961 1.008 2.16 2.16 0 01-.772.13c-.269 0-.516-.043-.742-.13a1.647 1.647 0 01-.584-.383 1.784 1.784 0 01-.383-.625 2.484 2.484 0 01-.134-.848c0-.424.076-.782.226-1.076.15-.294.365-.518.643-.67.278-.153.609-.23.994-.23.358 0 .675.077.95.23.278.152.496.376.653.67.16.294.24.652.24 1.076zm-2.643 0c0 .25.028.46.083.632.054.17.14.3.256.386.116.087.268.13.454.13a.72.72 0 00.448-.13.729.729 0 00.253-.386c.055-.171.082-.382.082-.633 0-.253-.027-.462-.082-.629a.71.71 0 00-.253-.379.756.756 0 00-.454-.126c-.276 0-.477.094-.602.283-.123.19-.185.473-.185.851zm4.406 1.917h-1.042v-5.319h1.042v5.319zm2 0h-1.042v-5.319h1.042v5.319zm2.533-3.893c.353 0 .657.068.912.205.256.134.453.33.592.588.139.257.208.572.208.943v.506h-2.464c.011.294.099.525.263.694.166.166.397.25.691.25.243 0 .467-.026.669-.076.203-.05.412-.125.626-.225v.806a2.475 2.475 0 01-.595.205 3.68 3.68 0 01-.748.065 2.34 2.34 0 01-1.019-.212 1.584 1.584 0 01-.694-.646c-.166-.29-.249-.654-.249-1.093 0-.447.075-.819.225-1.115.153-.298.365-.521.636-.67a1.92 1.92 0 01.947-.225zm.007.742a.698.698 0 00-.506.194c-.132.13-.209.334-.229.612h1.463a1.037 1.037 0 00-.086-.413.64.64 0 00-.239-.288.707.707 0 00-.403-.105zm3.965 3.22c-.379 0-.701-.07-.968-.206a1.37 1.37 0 01-.608-.642c-.139-.29-.208-.66-.208-1.111 0-.467.078-.848.235-1.142a1.5 1.5 0 01.66-.653c.283-.139.61-.208.981-.208a2.62 2.62 0 011.189.26l-.307.806a4.908 4.908 0 00-.458-.16 1.444 1.444 0 00-.424-.065.763.763 0 00-.455.13.755.755 0 00-.27.382c-.059.171-.088.385-.088.643 0 .253.031.462.095.629.064.166.156.29.277.372.121.08.268.12.441.12.216 0 .409-.029.578-.085.168-.06.332-.142.492-.247v.893c-.16.1-.327.172-.503.215a2.652 2.652 0 01-.659.068zm3.52-.831c.114 0 .225-.012.332-.035a3.34 3.34 0 00.325-.085v.776c-.112.05-.251.091-.417.123a2.648 2.648 0 01-.54.051c-.228 0-.433-.036-.616-.11a.876.876 0 01-.427-.385c-.102-.185-.154-.441-.154-.77v-1.842h-.499v-.44l.574-.35.301-.806h.667v.814h1.07v.782h-1.07v1.843c0 .145.041.255.123.328.084.07.195.106.331.106zm2.335-3.06v3.822h-1.043v-3.821h1.043zm-.52-1.496c.155 0 .289.036.4.109.112.07.168.204.168.4 0 .194-.056.328-.168.403a.714.714 0 01-.4.11.722.722 0 01-.403-.11c-.109-.075-.164-.21-.164-.403 0-.196.055-.33.164-.4a.722.722 0 01.403-.11zm4.95 3.4c0 .32-.044.602-.13.848a1.668 1.668 0 01-.373.625 1.555 1.555 0 01-.588.383c-.227.087-.485.13-.772.13-.269 0-.516-.043-.742-.13a1.647 1.647 0 01-.584-.383 1.784 1.784 0 01-.383-.625 2.485 2.485 0 01-.133-.848c0-.424.075-.782.225-1.076.151-.294.365-.518.643-.67.278-.153.609-.23.994-.23.358 0 .675.077.951.23.278.152.495.376.653.67.159.294.239.652.239 1.076zm-2.642 0c0 .251.027.462.082.633.054.17.14.3.256.386.116.087.268.13.455.13a.72.72 0 00.447-.13.723.723 0 00.253-.386c.055-.171.082-.382.082-.633 0-.253-.027-.462-.082-.629a.704.704 0 00-.253-.379.754.754 0 00-.454-.126c-.276 0-.476.094-.602.283-.123.19-.184.473-.184.851zm5.534-1.975c.407 0 .736.111.984.335.248.22.372.576.372 1.066v2.492h-1.042V41.44c0-.274-.05-.48-.15-.619-.098-.139-.253-.208-.465-.208-.319 0-.537.108-.653.325-.116.216-.174.528-.174.936v1.798h-1.043v-3.821h.796l.141.488h.058c.082-.132.183-.239.304-.321a1.34 1.34 0 01.407-.181c.15-.039.305-.058.465-.058z" fill="#151619"/><circle cx="177.274" cy="106.448" r="6.774" fill="#fff" fill-opacity=".2" stroke="#fff"/><path d="M180.333 106.016a.5.5 0 010 .866l-4.214 2.433a.5.5 0 01-.75-.433v-4.867a.5.5 0 01.75-.433l4.214 2.434z" fill="#fff"/><path fill-rule="evenodd" clip-rule="evenodd" d="M17.657 47.914C7.905 47.914 0 55.654 0 65.204v101.051h106.679V65.204c0-9.55-7.906-17.29-17.657-17.29H17.657zM4.051 65.103c0-7.303 6.046-13.222 13.504-13.222h14.854v3.305c0 2.191 1.813 3.967 4.05 3.967h33.76c2.237 0 4.051-1.776 4.051-3.967v-3.305h14.179c7.458 0 13.503 5.92 13.503 13.222v101.152h-97.9V65.103z" fill="#162344"/><path fill-rule="evenodd" clip-rule="evenodd" d="M17.91 51.713c-7.453 0-13.496 5.928-13.496 13.242v101.301h97.85V64.955c0-7.313-6.042-13.242-13.496-13.242H74.597v3.31c0 2.194-1.813 3.973-4.05 3.973h-33.74c-2.237 0-4.05-1.779-4.05-3.973v-3.31H17.911z" fill="#fff"/><mask id="b" style="mask-type:alpha" maskUnits="userSpaceOnUse" x="4" y="51" width="97" height="116"><path fill-rule="evenodd" clip-rule="evenodd" d="M17.538 51.712c-7.299 0-13.216 5.928-13.216 13.242v101.301h95.813V64.954c0-7.313-5.917-13.242-13.215-13.242H73.043v3.31a3.969 3.969 0 01-3.964 3.973h-33.04a3.969 3.969 0 01-3.964-3.973v-3.31H17.538z" fill="#fff"/></mask><g mask="url(#b)"><rect x="10.391" y="94.326" width="41.563" height="26.501" rx="3" fill="#96CAF8"/><rect x="10.391" y="123.421" width="41.563" height="26.501" rx="3" fill="#A495FF"/><rect x="10.391" y="152.514" width="41.563" height="26.501" rx="3" fill="#F0DDE3"/><rect x="54.725" y="123.421" width="41.563" height="26.501" rx="3" fill="#B6E0F9"/><rect x="54.725" y="152.514" width="41.563" height="26.501" rx="3" fill="#A495FF"/><rect x="54.725" y="94.326" width="41.563" height="26.501" rx="3" fill="#F0DDE3"/></g><path d="M12.75 73.185a1.01 1.01 0 00-.464.102.92.92 0 00-.337.29 1.4 1.4 0 00-.205.46c-.047.18-.07.382-.07.607 0 .302.037.561.111.776a.992.992 0 00.352.49c.158.11.362.166.612.166.174 0 .348-.02.522-.058.175-.04.366-.095.57-.167v.761c-.188.078-.375.134-.559.167-.183.035-.39.053-.618.053-.441 0-.804-.09-1.09-.272a1.642 1.642 0 01-.63-.768 3.001 3.001 0 01-.205-1.154c0-.325.044-.621.132-.89.088-.27.217-.504.387-.701.17-.197.38-.35.63-.457.25-.108.537-.161.861-.161.213 0 .426.027.639.082.215.053.42.126.615.22l-.293.738a4.853 4.853 0 00-.483-.2 1.443 1.443 0 00-.478-.084zm3.277.246c.44 0 .777.095 1.011.287.235.191.352.482.352.873v2.182h-.624l-.173-.445h-.023c-.094.117-.19.213-.288.287a.985.985 0 01-.337.164 1.755 1.755 0 01-.462.053c-.194 0-.368-.037-.522-.111a.828.828 0 01-.36-.34 1.172 1.172 0 01-.132-.586c0-.348.122-.604.366-.768.244-.166.61-.258 1.099-.275l.568-.018v-.143c0-.172-.045-.298-.135-.378a.544.544 0 00-.375-.12c-.158 0-.313.022-.466.067a3.6 3.6 0 00-.457.17l-.295-.603a2.54 2.54 0 01.583-.217c.216-.053.44-.08.67-.08zm.475 1.825l-.346.012c-.289.007-.49.06-.603.155a.474.474 0 00-.167.378c0 .136.04.234.12.293.08.056.185.085.313.085a.713.713 0 00.484-.17c.133-.114.2-.275.2-.484v-.27zm3.19.864c.098 0 .193-.01.285-.03.093-.019.186-.043.278-.072v.665a1.634 1.634 0 01-.357.105c-.141.03-.295.044-.463.044-.196 0-.371-.031-.528-.094a.75.75 0 01-.366-.33c-.088-.159-.132-.379-.132-.66v-1.58h-.427v-.377l.492-.299.258-.691h.57v.697h.918v.67h-.917v1.58c0 .125.035.219.105.281.073.06.167.091.284.091zm2.579-2.684c.302 0 .563.06.782.176.219.116.388.284.507.504.119.22.178.49.178.809v.433h-2.112c.01.252.085.45.226.595.142.143.34.214.591.214.21 0 .4-.022.575-.064.174-.043.352-.108.536-.194v.692c-.162.08-.332.138-.51.175-.176.038-.39.056-.642.056-.328 0-.619-.06-.873-.182a1.357 1.357 0 01-.594-.553c-.143-.248-.214-.56-.214-.938 0-.383.064-.701.193-.955.131-.256.313-.447.545-.574.233-.129.503-.194.812-.194zm.005.636a.599.599 0 00-.433.167c-.113.112-.179.286-.196.525H22.9a.882.882 0 00-.074-.355.55.55 0 00-.55-.337zm3.147 4.143c-.457 0-.807-.08-1.049-.24a.755.755 0 01-.36-.668.7.7 0 01.184-.496c.123-.132.304-.227.542-.284a.601.601 0 01-.24-.19.462.462 0 01-.102-.284c0-.125.036-.229.108-.31.072-.085.177-.167.314-.247a.888.888 0 01-.41-.357c-.1-.164-.15-.358-.15-.58 0-.239.052-.44.155-.607a.998.998 0 01.457-.384c.201-.087.445-.132.733-.132.06 0 .13.004.21.012a4.627 4.627 0 01.358.05h1.143v.454l-.513.132c.047.072.082.15.105.231a.947.947 0 01.035.261c0 .352-.123.626-.369.823-.244.196-.584.293-1.02.293a5.963 5.963 0 01-.292-.023.416.416 0 00-.103.111.236.236 0 00-.035.123c0 .043.018.08.053.109a.434.434 0 00.164.064c.074.014.166.02.275.02h.557c.36 0 .633.078.82.232.19.154.285.381.285.68 0 .383-.16.68-.481.89-.318.211-.776.317-1.374.317zm.038-.583c.213 0 .396-.02.548-.062a.823.823 0 00.354-.17.336.336 0 00.123-.26.265.265 0 00-.073-.197.415.415 0 00-.217-.1 1.897 1.897 0 00-.369-.029h-.463a.79.79 0 00-.296.053.503.503 0 00-.205.147.35.35 0 00-.076.222c0 .123.059.22.176.29.12.07.285.106.498.106zm.144-2.485c.168 0 .29-.051.369-.155a.685.685 0 00.117-.422c0-.197-.041-.344-.123-.442-.08-.1-.201-.15-.363-.15-.164 0-.288.05-.37.15-.081.098-.122.245-.122.442 0 .178.04.319.12.422.082.104.206.155.372.155zm5.23-.017c0 .273-.038.516-.112.726-.072.211-.179.39-.32.537a1.344 1.344 0 01-.503.328 1.854 1.854 0 01-.662.111 1.76 1.76 0 01-.636-.111 1.414 1.414 0 01-.501-.328 1.53 1.53 0 01-.328-.537 2.132 2.132 0 01-.115-.726c0-.363.065-.671.194-.923s.312-.443.55-.574c.239-.131.523-.197.853-.197.307 0 .578.066.815.197.238.13.424.322.56.574.136.252.204.56.204.923zm-2.265 0c0 .215.023.395.07.542a.64.64 0 00.22.33c.1.075.229.112.39.112a.618.618 0 00.383-.111.626.626 0 00.217-.331c.047-.147.07-.327.07-.542 0-.217-.023-.397-.07-.54a.61.61 0 00-.217-.324.649.649 0 00-.39-.109c-.236 0-.408.081-.515.243-.106.162-.159.406-.159.73zm4.83-1.694a1.6 1.6 0 01.156.01c.06.003.11.01.146.017l-.067.838a.54.54 0 00-.126-.02 1.258 1.258 0 00-.475.034.824.824 0 00-.29.144.677.677 0 00-.205.258.925.925 0 00-.073.39v1.666h-.894v-3.275h.677l.132.55h.044c.064-.11.145-.212.24-.304.098-.094.208-.168.331-.222a.967.967 0 01.404-.086zm1.79.062v3.275h-.893v-3.275h.894zm-.445-1.283c.133 0 .247.031.343.094.096.06.144.174.144.342 0 .166-.048.282-.144.346a.613.613 0 01-.343.094.618.618 0 01-.345-.094c-.094-.064-.141-.18-.141-.346 0-.168.047-.282.14-.342a.618.618 0 01.346-.094zm2.737 1.221c.302 0 .563.06.782.176.219.116.387.284.507.504.119.22.178.49.178.809v.433h-2.112c.01.252.085.45.226.595.142.143.34.214.591.214.21 0 .4-.022.575-.064a2.92 2.92 0 00.536-.194v.692c-.162.08-.332.138-.51.175a3.16 3.16 0 01-.642.056c-.328 0-.619-.06-.873-.182a1.356 1.356 0 01-.594-.553c-.143-.248-.214-.56-.214-.938 0-.383.064-.701.193-.955.131-.256.313-.447.545-.574.233-.129.503-.194.812-.194zm.005.636a.599.599 0 00-.433.167c-.113.112-.179.286-.196.525h1.254a.883.883 0 00-.074-.355.55.55 0 00-.55-.337zm4.474 1.729a.978.978 0 01-.158.565.96.96 0 01-.466.349 2.207 2.207 0 01-.773.117c-.229 0-.425-.015-.59-.044a2.423 2.423 0 01-.491-.146v-.739c.177.08.368.147.57.2.206.05.386.076.54.076.174 0 .298-.026.372-.076a.24.24 0 00.114-.206.243.243 0 00-.047-.146.55.55 0 00-.193-.15c-.1-.056-.256-.13-.469-.22a3.093 3.093 0 01-.507-.26.882.882 0 01-.292-.31.998.998 0 01-.094-.46c0-.303.117-.53.351-.683.237-.154.552-.232.947-.232a2.654 2.654 0 011.15.258l-.269.645a4.565 4.565 0 00-.46-.173 1.444 1.444 0 00-.436-.067.65.65 0 00-.296.052.171.171 0 00-.1.162c0 .052.017.1.05.14a.696.696 0 00.2.138c.099.049.245.112.436.19.186.076.347.156.483.24a.903.903 0 01.317.308.892.892 0 01.111.472z" fill="#202353"/><rect x="10.391" y="83.242" width="20.089" height="5.542" rx=".8" fill="#D8DCEB"/><path d="M94.902 79.085l-1.242-1.241M91.844 78.51a2.483 2.483 0 100-4.966 2.483 2.483 0 000 4.967z" stroke="#202353" stroke-miterlimit="10" stroke-linecap="round" stroke-linejoin="round"/><path d="M25.822 104.097c0-.606.474-1.097 1.057-1.097.584 0 1.057.491 1.057 1.097v7.315c0 .606-.473 1.098-1.057 1.098s-1.057-.492-1.057-1.098v-7.315zM23.92 105.853a.74.74 0 111.48 0v4.438a.74.74 0 01-1.48 0v-4.438zM34.064 104.097c0-.606.473-1.097 1.056-1.097.584 0 1.057.491 1.057 1.097v7.315c0 .606-.473 1.098-1.056 1.098-.584 0-1.057-.492-1.057-1.098v-7.315zM38.08 110.292a.74.74 0 01-1.48 0v-4.438a.74.74 0 111.48 0v4.438z" fill="#fff"/><path d="M27.49 106.73h7.212v2.239H27.49v-2.239z" fill="#fff"/><path fill-rule="evenodd" clip-rule="evenodd" d="M75.135 113.951a4.201 4.201 0 100-8.402 4.201 4.201 0 000 8.402zm0 .97a5.17 5.17 0 100-10.342 5.17 5.17 0 000 10.342z" fill="#fff"/><path d="M74.489 103.286h1.293v1.939h-1.293v-1.939z" fill="#fff"/><path d="M73.52 102.64h3.231v.969h-3.232v-.969zM75.781 109.749a.646.646 0 11-1.292 0 .646.646 0 011.292 0z" fill="#fff"/><path fill-rule="evenodd" clip-rule="evenodd" d="M75.135 106.357c.09 0 .162.073.162.162v3.165l2.215 2.215a.162.162 0 01-.228.228l-2.31-2.309v-3.299c0-.089.072-.162.161-.162zM71.23 133.928l2.938 4.061a1.17 1.17 0 001.894 0l2.94-4.061c.557-.771.005-1.847-.948-1.847h-5.877c-.953 0-1.505 1.076-.948 1.847zm2.306 4.516a1.95 1.95 0 003.158 0l2.939-4.061c.929-1.285.009-3.079-1.58-3.079h-5.876c-1.589 0-2.509 1.794-1.58 3.079l2.94 4.061z" fill="#fff"/><path fill-rule="evenodd" clip-rule="evenodd" d="M71.477 133.75l2.938 4.061a.864.864 0 001.4 0l2.939-4.061a.86.86 0 00-.7-1.362h-5.877a.86.86 0 00-.7 1.362zm5.465 4.874a2.256 2.256 0 01-3.653 0l-2.939-4.061c-1.076-1.488-.01-3.563 1.827-3.563h5.877c1.836 0 2.903 2.075 1.826 3.563l-2.938 4.061zm-2.774-.634l-2.939-4.061c-.557-.771-.005-1.847.948-1.847h5.877c.953 0 1.505 1.076.947 1.847l-2.939 4.061a1.17 1.17 0 01-1.894 0zm2.526.455a1.95 1.95 0 01-3.158 0l-2.938-4.061c-.93-1.285-.01-3.079 1.579-3.079h5.877c1.588 0 2.508 1.794 1.579 3.079l-2.939 4.061z" fill="#fff"/><circle cx="75.115" cy="138.943" r="4.584" fill="#fff"/><path d="M26.413 139.719l.872-1.51 6.794 3.923-.872 1.509-6.794-3.922zM30.336 132.924l.871-1.51 6.795 3.923-.872 1.51-6.794-3.923z" fill="#fff"/><path d="M27.285 138.209a.872.872 0 11-.873 1.51.872.872 0 01.873-1.51zM31.207 131.412a.872.872 0 11-.872 1.51.872.872 0 01.872-1.51z" fill="#fff"/><path fill-rule="evenodd" clip-rule="evenodd" d="M24.161 136.175a4.031 4.031 0 015.91-4.535l-.109.189a3.811 3.811 0 00-5.21 1.396 3.814 3.814 0 001.396 5.21l-.108.188a4.03 4.03 0 01-1.879-2.448z" fill="#fff"/><path fill-rule="evenodd" clip-rule="evenodd" d="M27.362 134.244c-.172-.26-.473-.541-.867-.769-.394-.227-.788-.347-1.1-.366-.326-.02-.491.071-.548.17-.057.098-.053.287.127.56.172.261.473.541.867.769.394.227.788.348 1.1.366.326.02.491-.071.548-.17.057-.098.053-.287-.127-.56zm.316.669c.24-.417-.24-1.145-1.074-1.626-.834-.482-1.705-.534-1.946-.117-.24.417.24 1.145 1.074 1.627.834.481 1.705.533 1.946.116z" fill="#fff"/><g clip-path="url(#clip0_5016_17536)"><path d="M164.912 94.944a5.859 5.859 0 00-.471-1.188 2.202 2.202 0 01.03-2.07l.038-.066c.214-.37.325-.791.319-1.219a1.434 1.434 0 00-.693-1.15 2.37 2.37 0 00-.327-.164.548.548 0 01-.349-.511v-.631l-2.015-.008v.63a.548.548 0 01-.352.508 2.291 2.291 0 00-.328.154 1.43 1.43 0 00-.701 1.15c-.01.428.097.85.31 1.221l.034.063a2.212 2.212 0 01.017 2.073l-.058.117c-.176.34-.317.698-.421 1.068a5.09 5.09 0 00-.1 1.087l-.011 2.938c0 .383.249.764.748 1.057.449.246.946.391 1.457.425.241.02.484.02.725 0a3.514 3.514 0 001.45-.416c.503-.287.755-.667.757-1.048l.008-2.124c0-.266.011-.542.011-.822.013-.36-.014-.72-.078-1.074z" fill="#96CAF8"/><path opacity=".3" d="M164.912 94.944a5.859 5.859 0 00-.471-1.188 2.202 2.202 0 01.03-2.07l.038-.066c.214-.37.325-.791.319-1.219a1.434 1.434 0 00-.693-1.15 2.37 2.37 0 00-.327-.164.548.548 0 01-.349-.511v-.631l-2.015-.008v.63a.548.548 0 01-.352.508 2.291 2.291 0 00-.328.154 1.43 1.43 0 00-.701 1.15c-.01.428.097.85.31 1.221l.034.063a2.212 2.212 0 01.017 2.073l-.058.117c-.176.34-.317.698-.421 1.068a5.09 5.09 0 00-.1 1.087l-.011 2.938c0 .383.249.764.748 1.057.449.246.946.391 1.457.425.241.02.484.02.725 0a3.514 3.514 0 001.45-.416c.503-.287.755-.667.757-1.048l.008-2.124c0-.266.011-.542.011-.822.013-.36-.014-.72-.078-1.074z" fill="#000"/><path opacity=".1" d="M164.466 91.686l.038-.065c.182-.315.29-.668.313-1.032a1.938 1.938 0 01-.192.417 3.95 3.95 0 01-.908.95c-.343.282-.727.604-.769 1.048-.043.444.26.822.604 1.081.344.26.747.444 1.057.744.132.134.249.282.35.44a3.737 3.737 0 00-.052-.328 5.862 5.862 0 00-.413-1.071c-.018-.04-.038-.079-.057-.117a2.199 2.199 0 01.029-2.067z" fill="#000"/><path d="M161.113 88.645v.34c0 .202.131.407.398.564a2.14 2.14 0 001.935.008.948.948 0 00.299-.255.507.507 0 00.1-.297v-.345a.318.318 0 00-.01-.092.741.741 0 00-.386-.47l-.021-.01a2.127 2.127 0 00-1.914 0 .73.73 0 00-.393.465.405.405 0 00-.008.092z" fill="#96CAF8"/><path opacity=".1" d="M161.113 88.645v.34c0 .202.131.407.398.564a2.14 2.14 0 001.935.008.948.948 0 00.299-.255.507.507 0 00.1-.297v-.345a.318.318 0 00-.01-.092.741.741 0 00-.386-.47l-.021-.01a2.127 2.127 0 00-1.914 0 .73.73 0 00-.393.465.405.405 0 00-.008.092z" fill="#000"/><path opacity=".2" d="M163.444 89.213c.536-.307.537-.808 0-1.12a2.124 2.124 0 00-1.933 0c-.535.307-.537.808 0 1.119a2.123 2.123 0 001.933.001z" fill="#000"/><path d="M161.115 88.25v.206c0 .032.003.064.01.096a.732.732 0 00.389.468c.263.144.555.223.854.231.373.027.747-.05 1.079-.225a.9.9 0 00.302-.26.494.494 0 00.101-.295v-.212c0-.204-.131-.406-.398-.562l-.072-.04a2.15 2.15 0 00-1.861.034c-.27.154-.406.356-.404.56z" fill="#96CAF8"/><path opacity=".1" d="M161.115 88.25v.206c0 .032.003.064.01.096a.732.732 0 00.389.468c.263.144.555.223.854.231.373.027.747-.05 1.079-.225a.9.9 0 00.302-.26.494.494 0 00.101-.295v-.212c0-.204-.131-.406-.398-.562l-.072-.04a2.15 2.15 0 00-1.861.034c-.27.154-.406.356-.404.56z" fill="#000"/><path d="M161.115 88.244c0 .435.609.792 1.364.793.755.002 1.368-.346 1.37-.782.001-.435-.61-.791-1.365-.793-.755-.002-1.368.347-1.369.782z" fill="#96CAF8"/><path d="M162.009 87.435v.71a.09.09 0 000 .033.242.242 0 00.049.097.243.243 0 00.085.067c.091.05.192.078.295.08.13.01.26-.017.375-.076a.359.359 0 00.105-.09.204.204 0 00.031-.072.18.18 0 000-.032v-.712a.226.226 0 00-.043-.117.23.23 0 00-.096-.078l-.025-.013a.743.743 0 00-.645.01.234.234 0 00-.131.193z" fill="#96CAF8"/><path opacity=".1" d="M162.009 87.435v.71a.09.09 0 000 .033.242.242 0 00.049.097.243.243 0 00.085.067c.091.05.192.078.295.08.13.01.26-.017.375-.076a.359.359 0 00.105-.09.204.204 0 00.031-.072.18.18 0 000-.032v-.712a.226.226 0 00-.043-.117.23.23 0 00-.096-.078l-.025-.013a.743.743 0 00-.645.01.234.234 0 00-.131.193z" fill="#000"/><path d="M162.009 87.434c0 .15.211.273.473.274.263.002.474-.12.475-.27.002-.152-.211-.275-.473-.277-.262-.002-.475.122-.475.273z" fill="#96CAF8"/><path opacity=".5" d="M162.317 87.434c0 .054.074.097.164.099.09.001.164-.043.164-.097 0-.054-.076-.097-.164-.097-.089 0-.164.043-.164.095z" fill="#96CAF8"/><path opacity=".3" d="M162.317 87.434c0 .054.074.097.164.099.09.001.164-.043.164-.097 0-.054-.076-.097-.164-.097-.089 0-.164.043-.164.095z" fill="#000"/><g opacity=".3" fill="#000"><path opacity=".3" d="M125.141 93.975h-.025l-.943-.27a.127.127 0 01-.076-.062.13.13 0 01.049-.175.129.129 0 01.097-.013l.937.267c.03.01.055.03.071.056.016.027.021.06.016.09a.13.13 0 01-.133.107h.007zM124.173 94.704a.13.13 0 01-.115-.097.128.128 0 01.012-.103.131.131 0 01.083-.061l.943-.24a.13.13 0 01.096.017.13.13 0 01-.032.234l-.945.24a.125.125 0 01-.042.01zM124.654 95.578a.133.133 0 01-.082-.04.13.13 0 01-.037-.09.13.13 0 01.037-.092l.698-.682a.13.13 0 01.093-.042.128.128 0 01.095.04.133.133 0 01.029.043.132.132 0 01-.037.145l-.694.685a.134.134 0 01-.102.033zM125.501 96.095h-.025a.14.14 0 01-.046-.023.149.149 0 01-.033-.04.142.142 0 01-.015-.05.15.15 0 01.006-.051l.259-.94a.131.131 0 01.061-.076.131.131 0 01.098-.01c.032.009.06.03.077.06s.021.064.013.097l-.266.94a.131.131 0 01-.048.069.13.13 0 01-.081.024z"/></g><path d="M150.124 78.645c.308-1.008 1.566-1.83 2.734-1.501.185.051.362.127.527.225 1.147.657 2.059 2.259 2.059 3.577a2.12 2.12 0 01-.092.657c-.306 1.007-1.56 1.835-2.733 1.505a2.237 2.237 0 01-.528-.225c-1.136-.657-2.059-2.261-2.059-3.579a2.193 2.193 0 01.092-.659z" fill="#455A64"/><path d="M152.093 82.873c-1.137-.657-2.059-2.26-2.059-3.578s.922-1.85 2.059-1.193 2.054 2.259 2.054 3.577c0 1.317-.917 1.851-2.054 1.194z" fill="#37474F"/><path d="M152.093 79.562c-.437-.253-.793-.047-.793.459a1.756 1.756 0 00.793 1.377c.437.253.791.047.791-.459a1.758 1.758 0 00-.791-1.377z" fill="#455A64"/><path d="M151.821 80.323a.604.604 0 00.272.471.194.194 0 00.182.025l.019-.011a.195.195 0 00.069-.165.602.602 0 00-.27-.471.195.195 0 00-.182-.025l-.02.011a.201.201 0 00-.07.165z" fill="#37474F"/><path d="M147.472 82.841a.602.602 0 00.271.472.225.225 0 00.118.036c.031 0 .062-.01.09-.026l4.324-2.504.019-.011a.195.195 0 00.069-.165.602.602 0 00-.27-.471.195.195 0 00-.182-.025l-.02.011-4.324 2.504a.19.19 0 00-.095.18z" fill="#FAFAFA"/><path d="M145.196 83.552c-.438-.255-.792-.05-.792.458a1.768 1.768 0 00.792 1.375c.437.253.792.048.792-.458a1.754 1.754 0 00-.792-1.375z" fill="#455A64"/><path d="M144.925 84.316a.602.602 0 00.271.471.194.194 0 00.181.025.052.052 0 00.02-.012.205.205 0 00.055-.074.2.2 0 00.015-.09.599.599 0 00-.271-.472.195.195 0 00-.181-.023l-.019.012a.198.198 0 00-.071.163z" fill="#37474F"/><path d="M144.27 84.702a.604.604 0 00.27.471.228.228 0 00.118.037c.032-.001.063-.01.09-.027l.629-.365a.055.055 0 00.02-.011.205.205 0 00.055-.074.2.2 0 00.015-.09.599.599 0 00-.271-.472.195.195 0 00-.181-.023l-.019.012-.631.363a.192.192 0 00-.095.179z" fill="#FAFAFA"/><path d="M144.27 84.702a.607.607 0 00.27.473.199.199 0 00.182.023l.02-.011a.193.193 0 00.07-.165.607.607 0 00-.272-.473.194.194 0 00-.181-.023l-.02.012a.2.2 0 00-.069.164z" fill="#E0E0E0"/><mask id="c" fill="#fff"><path fill-rule="evenodd" clip-rule="evenodd" d="M149.87 83.987c.128-.084.254-.159.374-.23.712-.425 1.253-.748 1.12-2.187-.142-.8-.338-.877-1.086-1.17a4.963 4.963 0 01-.06-.023c-.351-.136-.819-.24-1.1.082a.872.872 0 01-.101.114.568.568 0 01-.275.088.789.789 0 00-.501.212c-.048.054-.08.118-.113.182a.814.814 0 01-.109.178c-.088.084-.183.16-.283.228a.674.674 0 00-.234.503.743.743 0 00.301.557l.501-.29c.203-.14.621.356.45.624l-.012.007-5.14.746s-3.753-5.655-4.328-6.544c-.575-.89-1.248-1.46-2.805-1.458l.294 4.512c.05.146 3.157 3.986 5.206 6.079.724.738 1.168.927 2.293.611 1.999-.556 4.293-1.869 5.608-2.82z"/></mask><path fill-rule="evenodd" clip-rule="evenodd" d="M149.87 83.987c.128-.084.254-.159.374-.23.712-.425 1.253-.748 1.12-2.187-.142-.8-.338-.877-1.086-1.17a4.963 4.963 0 01-.06-.023c-.351-.136-.819-.24-1.1.082a.872.872 0 01-.101.114.568.568 0 01-.275.088.789.789 0 00-.501.212c-.048.054-.08.118-.113.182a.814.814 0 01-.109.178c-.088.084-.183.16-.283.228a.674.674 0 00-.234.503.743.743 0 00.301.557l.501-.29c.203-.14.621.356.45.624l-.012.007-5.14.746s-3.753-5.655-4.328-6.544c-.575-.89-1.248-1.46-2.805-1.458l.294 4.512c.05.146 3.157 3.986 5.206 6.079.724.738 1.168.927 2.293.611 1.999-.556 4.293-1.869 5.608-2.82z" fill="#fff"/><path d="M149.87 83.987l-.11-.167-.008.005.118.162zm.374-.23l.103.171-.103-.172zm1.12-2.187l.199-.019-.001-.008-.001-.008-.197.035zm-1.086-1.17l-.073.187.073-.186zm-.06-.023l.072-.186-.072.186zm-1.1.082l-.151-.131-.008.01.159.121zm-.101.114l.108.168.016-.01.014-.013-.138-.145zm-.275.088l.01.2h.001l-.011-.2zm-.501.212l-.137-.146-.007.007-.007.008.151.131zm-.113.182l.179.09-.179-.09zm-.109.178l.138.145.007-.007.007-.008-.152-.13zm-.283.228l-.112-.165-.01.007-.009.008.131.15zm-.17.227l-.182-.085.182.085zm-.064.276l-.2-.004v.016l.2-.012zm.089.312l.176-.095-.176.095zm.212.245l-.119.16.105.079.114-.066-.1-.173zm.501-.29l.1.174.007-.004.007-.004-.114-.165zm.45.624l.1.173.043-.025.026-.041-.169-.107zm-.012.007l.028.198.038-.006.034-.019-.1-.173zm-5.14.746l-.167.11.07.106.126-.018-.029-.198zm-4.328-6.544l.168-.109-.168.109zm-2.805-1.458l-.001-.2h-.213l.014.213.2-.013zm.294 4.512l-.199.013.002.026.008.025.189-.064zm5.206 6.079l-.143.14.143-.14zm2.293.611l-.054-.192.054.192zm5.717-2.654c.124-.08.247-.154.368-.226l-.205-.343c-.12.071-.25.148-.382.235l.219.335zm.368-.226c.348-.208.704-.416.941-.774.242-.366.344-.859.275-1.603l-.398.037c.064.695-.038 1.084-.211 1.345-.178.27-.448.434-.812.652l.205.343zm1.214-2.393c-.072-.408-.165-.682-.374-.884-.195-.19-.478-.296-.836-.437l-.146.373c.389.152.579.23.704.351.112.11.189.274.258.667l.394-.07zm-1.21-1.32l-.061-.024-.145.372.06.024.146-.373zm-.061-.024a1.909 1.909 0 00-.646-.145c-.236-.003-.487.064-.676.282l.301.262c.091-.104.214-.146.37-.144.161.002.339.053.506.117l.145-.372zm-1.331.147a.729.729 0 01-.08.09l.276.29c.044-.043.085-.089.123-.138l-.319-.242zm-.05.066a.365.365 0 01-.178.058l.022.399a.77.77 0 00.372-.12l-.216-.337zm-.177.058a.993.993 0 00-.628.265l.273.292a.59.59 0 01.375-.158l-.02-.4zm-.642.28c-.066.075-.109.162-.14.222l.357.182a.67.67 0 01.084-.141l-.301-.263zm-.14.222a.715.715 0 01-.082.139l.303.26c.064-.074.106-.159.136-.217l-.357-.181zm-.068.124a2.135 2.135 0 01-.258.208l.224.33c.11-.074.213-.157.309-.248l-.275-.29zm-.277.223a.882.882 0 00-.221.292l.363.17a.471.471 0 01.12-.16l-.262-.302zm-.221.292a.882.882 0 00-.082.358l.4.007a.473.473 0 01.045-.196l-.363-.169zm-.082.373a.96.96 0 00.113.395l.352-.19a.557.557 0 01-.066-.229l-.399.024zm.113.395a.951.951 0 00.269.31l.238-.32a.549.549 0 01-.155-.18l-.352.19zm.488.323l.501-.289-.2-.346-.501.289.2.346zm.515-.297c-.031.021-.051.001-.019.016a.347.347 0 01.112.1c.04.051.068.108.078.155.011.048.002.07-.003.08l.337.214a.496.496 0 00.057-.381.806.806 0 00-.153-.313.727.727 0 00-.257-.216c-.099-.047-.246-.077-.379.015l.227.33zm.236.284l-.012.008.2.346.012-.007-.2-.347zm.059-.017l-5.14.746.058.396 5.139-.746-.057-.396zm-5.111.944l.166-.11v-.001l-.002-.004-.008-.012-.032-.048-.12-.18-.433-.653-1.353-2.041a798.978 798.978 0 01-2.378-3.604l-.336.217c.289.446 1.371 2.083 2.381 3.608a3142.45 3142.45 0 001.786 2.694l.12.18.031.048.008.012a.013.013 0 00.003.003v.001l.167-.11zm-4.16-6.653c-.296-.457-.628-.85-1.101-1.127-.474-.276-1.069-.422-1.873-.422l.001.4c.754 0 1.274.137 1.67.368.397.231.688.567.967.998l.336-.217zm-3.173-1.335l.295 4.511.399-.026-.295-4.512-.399.026zm.305 4.562c.01.031.029.06.034.068l.036.053c.028.04.067.091.114.154.095.124.23.296.395.503.331.415.789.975 1.31 1.596 1.04 1.24 2.333 2.729 3.363 3.781l.286-.28c-1.019-1.04-2.304-2.52-3.343-3.758a94.132 94.132 0 01-1.303-1.589 31.09 31.09 0 01-.39-.496 6.065 6.065 0 01-.105-.142l-.025-.037c-.01-.014 0-.003.007.02l-.379.127zm5.252 6.155c.366.373.689.637 1.083.752.396.116.832.073 1.407-.088l-.108-.385c-.55.154-.899.174-1.187.09-.29-.085-.552-.285-.909-.649l-.286.28zm2.49.664c2.03-.565 4.345-1.891 5.671-2.852l-.235-.324c-1.303.944-3.575 2.243-5.544 2.79l.108.386z" fill="#3F5280" mask="url(#c)"/><path d="M143.228 82.64c.307-1.007 1.561-1.84 2.734-1.51.185.052.363.128.529.225 1.137.657 2.059 2.26 2.059 3.579.003.222-.028.444-.092.657-.308 1.007-1.561 1.835-2.733 1.506a2.266 2.266 0 01-.528-.225c-1.137-.657-2.059-2.26-2.059-3.576a2.202 2.202 0 01.09-.656z" fill="#455A64"/><path d="M145.196 86.865c-1.137-.657-2.059-2.26-2.059-3.576 0-1.316.922-1.852 2.059-1.195 1.136.657 2.058 2.261 2.058 3.579 0 1.317-.92 1.851-2.058 1.192z" fill="#37474F"/><path d="M129.884 87.136l-.028-.045a8.285 8.285 0 00-.134-1.38h0l-.001-.005-.477-1.913 9.07-.272-.001.034-.014.382c-.014.321-.035.763-.067 1.245-.061.948-.16 2.04-.312 2.68a7.13 7.13 0 01-4.575 1.128c-1.317-.145-2.193-.63-2.74-1.074a3.752 3.752 0 01-.587-.593 2.9 2.9 0 01-.134-.186z" fill="#fff" stroke="#3F5280" stroke-width=".2"/><path d="M138.423 83.418c.011.102-.054 1.076-.054 1.076-1.19 1.004-5.004 1.512-9.009.176l-.849-3.286s2.88-1.268.934-5.523l2.092-.165 3.713-.093h1.219a13.727 13.727 0 012.511 3.335c.486.91 1.105 2.244-.557 4.48z" fill="#96CAF8"/><path d="M136.051 83.058c-.101.103-.22.211-.358.314-.555.418-1.417.772-2.648.503-1.16-.254-1.654-.921-1.864-1.52a2.389 2.389 0 01-.089-.321c.077.162.174.324.299.48.345.432.888.812 1.744 1.031m0 0s0 0 0 0l.025-.097-.025.097z" fill="#1F3468" stroke="#3F5280" stroke-width=".2"/><path d="M118.897 108.495c-.492.36-1.624.447-2.621-.023-.998-.47-1.414-1.807-1.227-2.841.226-1.26.847-1.948 1.004-2.707.157-.759 0-1.808.239-2.484a1.931 1.931 0 011.147-1.13 1.162 1.162 0 011.025.09l.295.174.138 8.921z" fill="#263238"/><path d="M120.068 103.689l-.777 2.336s.492 1.666.215 2.11c-.408.657-1.127.772-2.337.401-1.384-.423-1.71-1.679-1.638-2.655.098-1.392 1.38-2.439 1.233-3.779-.072-.657.018-1.392.377-1.957.401-.63 1.06-.75 1.743-.544.586.178 1.1.547 1.597.894.142.091.271.202.383.329.089.119.155.253.196.396.09.287.117.59.079.888-.036.28-.215.442-.38.658l-.691.923z" fill="#37474F"/><path d="M123.27 102.554l.079.05-1.149 2.422-2.737-1.631h0l-.001-.001-.004-.002-.017-.012a.77.77 0 01-.216-.274c-.095-.204-.144-.533.068-1.023v-.001c.302-.7.604-.999.853-1.113a.663.663 0 01.573.006c.06.027.253.141.513.301.259.159.581.36.896.559l.591.373.266.168.285.178z" fill="#fff" stroke="#3F5280" stroke-width=".1"/><path d="M119.291 106.026a3.424 3.424 0 00-1.618-.363.255.255 0 01-.268-.329.252.252 0 01.222-.174c.375-.029 1.286-.041 1.89.459.161.325-.226.407-.226.407zM119.576 104.958a3.42 3.42 0 00-1.597-.445.257.257 0 01-.252-.346.261.261 0 01.091-.117.26.26 0 01.14-.047c.377-.01 1.288.028 1.866.557.142.337-.248.398-.248.398z" fill="#96CAF8"/><path opacity=".3" d="M119.291 106.026a3.424 3.424 0 00-1.618-.363.255.255 0 01-.268-.329.252.252 0 01.222-.174c.375-.029 1.286-.041 1.89.459.161.325-.226.407-.226.407zM119.576 104.958a3.42 3.42 0 00-1.597-.445.257.257 0 01-.252-.346.261.261 0 01.091-.117.26.26 0 01.14-.047c.377-.01 1.288.028 1.866.557.142.337-.248.398-.248.398z" fill="#000"/><path d="M146.776 107.489l-2.991 1.19-.446-2.262v-3.444l3.391.647c-.159 1.66-.064 2.67.006 3.411.016.165.03.316.04.458z" fill="#fff" stroke="#3F5280" stroke-width=".1"/><path d="M152.538 111.462c.082.249.067.519-.042.757-.105.222-1.26.875-2.817.769a6.482 6.482 0 01-3.222-1.128c-.593-.395-1.212-.469-1.982-.513-.77-.044-1.785-.43-1.954-.792-.169-.361.026-.986.026-.986l9.991 1.893z" fill="#263238"/><path d="M146.254 106.586l.123-.026a.468.468 0 01.204-.01.401.401 0 01.194.13c.152.195.285.404.396.626.328.534 1.012.977 1.761 1.38.509.274 1.007.493 1.533.724.526.232 1.246.39 1.666.674.611.412.691 1.451 0 1.86-.6.355-2.18.737-3.838.266-.904-.256-1.907-1.224-3.091-1.315-.753-.059-2.18-.271-2.665-.844-.178-.255.061-1.063.257-1.76.215-.76.294-2.101.546-2.034 0 0-.069.189.029.291.099.102.444.306.546.391a2 2 0 01.404.6c.041.1.117.183.213.232.128.047.223-.033.328-.084a.653.653 0 01.45-.032c-.014-.15-.041-.3-.08-.446a.266.266 0 01-.011-.145.24.24 0 01.096-.108c.284-.188.604-.314.939-.37z" fill="#37474F"/><path d="M148.227 108.275s-.108-.291-.555-.373c-.344-.064-.95.189-1.327.492a.295.295 0 00-.081.11.295.295 0 00.024.264.282.282 0 00.426.057c.415-.373.957-.57 1.513-.55zM149.29 108.871a.81.81 0 00-.655-.34s-.896.027-1.451.544a.279.279 0 00-.055.36.279.279 0 00.094.09.266.266 0 00.308-.036 2.17 2.17 0 011.759-.618zM150.465 109.41a.903.903 0 00-.685-.307s-.835.031-1.389.548a.281.281 0 00-.099.235.278.278 0 00.137.215.257.257 0 00.16.032.26.26 0 00.149-.068 2.059 2.059 0 011.727-.655z" fill="#96CAF8"/><path opacity=".3" d="M148.227 108.275s-.108-.291-.555-.373c-.344-.064-.95.189-1.327.492a.295.295 0 00-.081.11.295.295 0 00.024.264.282.282 0 00.426.057c.415-.373.957-.57 1.513-.55zM149.29 108.871a.81.81 0 00-.655-.34s-.896.027-1.451.544a.279.279 0 00-.055.36.279.279 0 00.094.09.266.266 0 00.308-.036 2.17 2.17 0 011.759-.618zM150.465 109.41a.903.903 0 00-.685-.307s-.835.031-1.389.548a.281.281 0 00-.099.235.278.278 0 00.137.215.257.257 0 00.16.032.26.26 0 00.149-.068 2.059 2.059 0 011.727-.655z" fill="#000"/><path d="M145.854 91.124c-2.342-.528-7.936-1.7-7.936-1.7l.09-1.5c-2.023 1.052-6.286.755-8.252-.806l-.309 1.589a15.953 15.953 0 00-1.925 2.905c-.449.892-1.199 2.283-.452 5.525.439 1.904 1.024 6.917 1.024 6.917l-5.733-2.12s-.491.084-.907 1.162c-.246.638-.328 1.25-.079 1.567 2.096 1.662 5.494 4.374 8.927 5.895 2.293.881 3.511-1.053 3.623-1.769.431-2.744.927-11.56.927-11.56l7.666-.245c-.254 1.456.778 7.144.778 7.144s1.886.821 3.449-.02c0 0 1.045-6.546 1.147-8.729.103-2.435.227-3.744-2.038-4.255z" fill="#4A6097"/><path opacity=".15" d="M142.518 96.984c0-.393.26-1.765 1.146-2.496 0 0-1.215.219-1.772 2.516l.626-.02zM128.094 104.054s.164 2.164.576 3.219c0 0-1.033-1.873-1.146-3.432l.57.213zM137.917 89.424l.09-1.497c-2.023 1.05-6.285.752-8.249-.807l-.31 1.587c.017.015 1.278 1.323 4.557 1.492 3.279.17 3.912-.775 3.912-.775zM134.858 97.23a6.007 6.007 0 00-2.004-4.286s1.762.822 2.352 3.423c0 0 1.31-.613 1.995-2.45 0 0-.21 1.837-1.265 2.882l3.18.294-4.258.136z" fill="#000"/><path d="M133.836 64a5.103 5.103 0 00-3.625 1.5 5.142 5.142 0 000 7.269 5.113 5.113 0 003.625 1.501 5.11 5.11 0 003.615-1.507 5.145 5.145 0 000-7.256A5.113 5.113 0 00133.836 64z" fill="#4A6097"/><path d="M128.488 67.122c.186-.008.371.002.554.031.062.004.12.031.164.076.025.037.039.08.041.125.042.285.016.576-.077.85-.072.19-.297.287-.439.425-.554.538-.598 1.43-.38 2.172.218.74.655 1.401.938 2.117.284.717.435 1.58.033 2.3-.155.277-.439.493-.404.822.039.403.389.787.54 1.15.166.43.222.895.164 1.352a2.862 2.862 0 01-.604 1.56 2.335 2.335 0 01-2.225.775c-.171-.03-.333-.1-.473-.202-.241-.194-.338-.511-.469-.792-.421-.909-1.31-1.57-1.58-2.533-.293-1.027.195-2.095.794-2.968.28-.407.593-.806.731-1.283.185-.642.023-1.326-.02-1.994a5.555 5.555 0 01.221-1.936c.134-.453.343-.976.695-1.301a2.864 2.864 0 011.796-.746z" fill="#4A6097"/><path d="M131.707 75.941a.826.826 0 00-.021-.032l.033-3.45.002-.24-.171.167h-.001 0l-.001.002-.012.009a.557.557 0 01-.254.1c-.176.022-.453-.022-.819-.344a1.756 1.756 0 01-.56-.96c-.065-.342.004-.662.222-.879.444-.442 1.272-.328 1.59.33l.026.053.06.003.004-.1-.004.1h.061a4.937 4.937 0 00.777-.089 7.226 7.226 0 002.069-.764 4.692 4.692 0 002.402-3.318c.22.197.463.589.656 1.227.229.756.38 1.843.34 3.323-.034 1.25-.253 2.018-.508 2.493-.253.47-.542.656-.727.737-.181.079-.46.097-.802.074a11.261 11.261 0 01-1.107-.149l-.117-.02V75.883l.024.028h.001l.002.003.008.01.033.04.117.147c.096.126.224.3.35.495.125.196.247.41.333.617.086.208.131.398.116.546-.014.136-.096.252-.239.341-.145.091-.349.151-.587.17a2.45 2.45 0 01-1.54-.418c-.483-.335-.931-.828-1.26-1.24a10.431 10.431 0 01-.496-.681z" fill="#fff" stroke="#3F5280" stroke-width=".2"/><path d="M135.402 70.438a.315.315 0 01-.624.07.316.316 0 01.297-.386.328.328 0 01.327.316z" fill="#263238"/><path d="M135.474 72.574l.733.237a.38.38 0 01-.479.263.403.403 0 01-.254-.5z" fill="#3F5280" opacity=".5"/><path d="M137.998 69.474l-.637-.447a.374.374 0 01.531-.108.413.413 0 01.106.555zM137.848 70.217a.319.319 0 01-.372.315.318.318 0 01.044-.629.327.327 0 01.328.314z" fill="#263238"/><path d="M136.357 70.03l.043 1.908 1.002-.307-1.045-1.602zM134.947 74.332c-.809-.108-2.47-.594-2.726-1.255.103.334.306.628.58.843.495.43 2.143.923 2.143.923l.003-.51z" fill="#3F5280" opacity=".5"/><path d="M126.367 87.143l-.094.032h0v.002l.002.004.005.017.023.065.083.246.287.847c.232.684.528 1.554.784 2.3h0c.208.605.45 1.246.655 1.755.102.255.196.477.272.647.038.084.071.156.1.212.027.054.053.1.075.128m-2.192-6.255l4.31 7.871-.071.071c-.065-.065-.148-.158-.244-.264a17.367 17.367 0 00-.167-.186 7.402 7.402 0 00-.59-.585m-3.238-6.907l-.094.032m.094-.032l-.094.032m2.286 6.223h-.001l.08-.061-.079.061zm0 0c.13.168.334.27.523.358l.059.027c.175.082.338.157.464.267m0 0h.001l.065-.076-.066.076s0 0 0 0zm-.055 1.303c.015.051.033.102.052.152a4.439 4.439 0 01-.107-.069l.055-.083zm0 0l.134.085a1.596 1.596 0 01-.038-.114l-.096.029zm-3.29-8.216l.017-.037 2.755-5.75.008-.016.012-.012h0l-2.792 5.814zm0 0l.013.038m-.013-.038l.013.038m3.084-11.265l.031.057.064-.005-.007-.1-.088.048zm-6.273 12.047h-.001l-.093.035.094-.035zm7.299 7.737l-.001-.001h-.001l-.038.092.04-.091z" fill="#fff" stroke="#3F5280" stroke-width=".2"/><path d="M126.282 94.583s.634-1.287 2.351-1.246l-.454-1.012s-1.676.118-2.382 1.257l.485 1z" fill="#37474F"/><path d="M126.097 93.49l.369.524a.34.34 0 00.491.077l.655-.493a.381.381 0 00.084-.51l-.343-.507a.336.336 0 00-.227-.149.341.341 0 00-.264.062l-.694.493a.358.358 0 00-.071.503z" fill="#263238"/><path d="M125.974 93.477l.372.524a.355.355 0 00.23.142.344.344 0 00.261-.065l.656-.493a.381.381 0 00.085-.51l-.343-.507a.335.335 0 00-.227-.149.343.343 0 00-.264.062l-.694.501a.36.36 0 00-.076.495z" fill="#455A64"/><path d="M127.511 93.304a.25.25 0 01-.094.165l-.655.493a.205.205 0 01-.164.04.21.21 0 01-.141-.086l-.373-.526a.21.21 0 01-.039-.151.215.215 0 01.091-.165l.695-.492a.21.21 0 01.242-.007.214.214 0 01.061.059l.342.506a.25.25 0 01.04.164h-.005z" fill="#96CAF8"/></g><defs><clipPath id="clip0_5016_17536"><path fill="#fff" transform="translate(115 64)" d="M0 0h50v49H0z"/></clipPath></defs></svg>