<svg width="103" height="124" viewBox="0 0 103 124" fill="none" xmlns="http://www.w3.org/2000/svg"><g clip-path="url(#clip0)"><path d="M85.365 124H17.767c-3.92 0-7.6-2.801-9.943-7.562l-1.052-2.128H96.36l-1.051 2.128c-2.343 4.761-6.024 7.562-9.944 7.562zM98.368 114.31H4.764c-1.052 0-1.912-1.009-1.912-2.241 0-1.232.86-2.24 1.912-2.24h93.604c1.052 0 1.912 1.008 1.912 2.24 0 1.232-.86 2.241-1.912 2.241z" fill="#EAEBEF"/><path opacity=".15" d="M7.824 116.438c.095.168.191.336.287.56h86.91c.096-.168.192-.336.288-.56l1.051-2.128H6.772l1.052 2.128z" fill="#231F20"/></g><path d="M102.129 90.624c0 3.383-2.767 6.142-6.161 6.142-3.394 0-6.162-2.759-6.162-6.142 0-3.382 2.768-6.14 6.162-6.14s6.161 2.758 6.161 6.14z" fill="#F66"/><path d="M96.02 85.629a.756.756 0 01.365-.105c1.306-.052 2.507.833 3.238 1.874.313.416.574.989.313 1.457-.26.573-1.149.729-1.723.885-.679.156-1.305.312-1.984.416-.679.104-.575-.416-.522-.885.104-.676-.522-3.122.313-3.642z" fill="#E64437"/><path d="M97.378 89.323c-.47.52-1.045.73-1.254.52-.208-.207 0-.78.47-1.3s1.045-.729 1.254-.52c.209.26 0 .832-.47 1.3z" fill="#F15B38"/><path d="M100.25 92.966c0 .105 0 .26-.052.417-.522 1.197-1.776 1.925-3.081 2.186-.522.104-1.097.104-1.462-.26-.418-.469-.21-1.354-.105-1.926.105-.677.261-1.353.418-1.978.157-.624.574-.364 1.044-.156.627.26 3.081.677 3.238 1.718z" fill="#E64437"/><path d="M96.281 92.602c-.26-.624-.26-1.249 0-1.353.261-.104.731.312.992.937.261.624.261 1.249 0 1.353-.26.156-.73-.26-.992-.937z" fill="#F15B38"/><path d="M91.582 92.862c-.105-.052-.21-.156-.314-.26-.679-1.093-.522-2.55 0-3.747.21-.468.522-.989 1.044-1.04.627-.053 1.202.624 1.62 1.04.47.468.94.989 1.41 1.51.417.52-.053.676-.47.936-.627.26-2.403 2.03-3.29 1.561z" fill="#E64437"/><path d="M94.14 89.844c.68.156 1.15.52 1.097.78-.052.313-.679.417-1.358.26-.679-.155-1.149-.52-1.096-.78.052-.26.678-.416 1.357-.26z" fill="#F15B38"/><path d="M63.543 92.504c.73.52 1.462.728 2.297.676.366-.052 2.402-.676 2.611.156-.104-.572-.209-1.04.261-1.353.47-.312 1.045-.416 1.567-.676 1.932-.937 2.976-3.8 2.82-5.83-.366-4.11-2.35-8.014-5.483-10.72-.47-.416-1.097-.833-1.723-.729-.418.052-.731.313-1.045.573-4.23 3.539-5.744 9.888-3.55 14.936.522 1.145 1.2 2.238 2.245 2.967z" fill="#7ACC94"/><path d="M66.102 74.913l-.157 1.353-.105 1.353c0 .469-.052.885-.052 1.353 0 .469 0 .885.052 1.354.105 1.821.314 3.59.68 5.36.365 1.77.782 3.539 1.305 5.308.26.885.522 1.718.835 2.603.261.884.575 1.717.888 2.602-.418-.833-.731-1.666-1.097-2.498-.313-.833-.626-1.718-.94-2.55-.574-1.718-1.096-3.487-1.41-5.309-.365-1.821-.574-3.643-.574-5.464-.052-1.874.105-3.695.575-5.465z" fill="#3A4836"/><path d="M81.814.018c-.888.104-1.566.416-2.14 1.04-.262.26-1.359 2.082-2.037 1.614.47.312.835.624.678 1.197-.156.572-.522 1.04-.73 1.561-.836 1.978.26 4.84 1.723 6.245 2.976 2.863 7.101 4.476 11.226 4.424.627 0 1.358-.104 1.776-.573.261-.312.365-.728.418-1.092.835-5.413-2.246-11.19-7.206-13.584-1.201-.572-2.455-.936-3.708-.832z" fill="#7ACC94"/><path d="M91.527 14.954l-.784-1.145-.835-1.093c-.313-.364-.574-.676-.888-1.04-.313-.313-.626-.677-.94-.99-1.253-1.3-2.663-2.498-4.073-3.59-1.462-1.093-2.924-2.134-4.49-3.123l-2.35-1.405a54.28 54.28 0 00-2.35-1.353c.836.364 1.671.78 2.507 1.145.835.416 1.618.832 2.401 1.3 1.62.885 3.134 1.926 4.596 3.02 1.462 1.144 2.82 2.341 4.073 3.746 1.253 1.353 2.35 2.863 3.133 4.528z" fill="#1E0A3C"/><path fill-rule="evenodd" clip-rule="evenodd" d="M29.686 27.666c.087 1.552.692 2.368 1.08 2.734.475.449 1.219.684 1.895.597.533-.068.962-.323 1.213-.718.264-.419.298-.942.094-1.475-.269-.704-.888-1.28-1.577-1.47-.799-.22-1.705-.108-2.705.332zm-6.97 7.393a13.715 13.715 0 015.619-7.157 9.44 9.44 0 01.906-.51 8.63 8.63 0 01.009-.484c.108-2.295 1.112-4.546 2.825-6.337 1.714-1.79 3.915-2.889 6.197-3.093l.038.435c-2.178.194-4.28 1.246-5.92 2.96-1.642 1.715-2.602 3.864-2.705 6.054a5.294 5.294 0 00-.008.27c1.03-.423 1.98-.519 2.83-.283.819.225 1.552.905 1.868 1.73.254.666.207 1.33-.134 1.867-.32.507-.862.834-1.527.92-.812.103-1.673-.17-2.247-.712-.51-.483-1.087-1.35-1.205-2.85-.227.119-.46.252-.696.402a13.268 13.268 0 00-5.437 6.926l-.412-.138z" fill="#5B5761"/><path d="M36.703 76.735c2.245 1.405 4.386 3.07 6.84 4.059 3.395 1.353 7.154.624 9.556-2.186 3.29-3.903 2.977-9.211-.417-12.958-1.097-1.197-5.274 3.486-6.058 4.215-1.462 1.405-2.872 2.914-4.543 4.111-.783.625-1.67 1.145-2.558 1.614-.418.208-2.402 1.405-2.82 1.145z" fill="#F37042"/><path d="M55.45 72.832c-.366 2.185-1.41 4.319-3.343 5.516-1.41.885-3.133 1.197-4.856 1.197-4.073.052-7.05-1.77-10.652-3.123 2.193-1.769 4.7-3.174 7.049-4.736 2.193-1.457 4.23-3.07 6.423-4.58.992-.676 1.984-1.404 3.08-1.925.575.677 1.202 1.405 1.62 2.186.887 1.717.992 3.695.678 5.465z" fill="#F7EDBF"/><path d="M54.718 71.895c-.417 2.186-1.41 4.371-3.237 5.672-1.306.885-2.924 1.25-4.543 1.301-3.812.105-6.527-1.665-9.87-2.966 2.09-1.822 4.44-3.33 6.685-4.944 2.088-1.51 4.02-3.227 6.057-4.736.94-.676 1.88-1.457 2.924-1.978.522.677 1.097 1.406 1.462 2.186.836 1.666.888 3.643.522 5.465z" fill="#F38058"/><path d="M50.489 75.278l-5.222-4.893 5.535 4.476-.313.416zM53.57 70.125c-1.358-.156-2.716-.26-4.074-.364-1.357-.052-2.715-.156-4.073-.104a53.257 53.257 0 014.073-.156c1.358 0 2.716 0 4.126.104l-.053.52zM45.267 70.385a78.504 78.504 0 00-.575 3.435 76.615 76.615 0 00-.365 3.435l-.522-.052a39.59 39.59 0 01.626-3.435c.261-1.145.523-2.29.836-3.383z" fill="#F7EDBF"/><path d="M50.28 35.673c-.836 1.405-1.776 2.758-2.873 4.007-1.618 1.77-3.446 3.383-5.483 4.632-1.932 1.197-3.968 1.718-6.057 2.498-1.775.625-3.603 2.186-3.864 4.163-.418 3.019 4.96 1.77 6.37 1.354 5.797-1.666 11.489-4.944 15.614-9.368a23.466 23.466 0 002.454-3.07c1.096-1.614 1.984-3.331 2.61-5.153.94-2.81 1.306-5.828.732-8.847-.366-1.77-2.715-4.632-4.543-2.498-1.358 1.613-1.567 4.007-2.193 5.933-.783 2.134-1.671 4.371-2.768 6.349z" fill="#FFDA55"/><path d="M46.468 34.528c-3.081 5.1-8.25 8.64-13.838 10.981-1.045.468-2.193.833-3.029 1.561-.835.677-1.41 1.874-.835 2.602.835 1.093 2.663.937 3.916.73 2.61-.47 5.274-1.198 7.676-2.239 6.214-2.654 12.01-7.442 14.569-14.051 1.044-2.707 1.358-5.725.835-8.535-.313-1.666-2.558-4.736-4.334-2.759-1.305 1.458-1.566 3.8-2.245 5.621-.731 2.082-1.619 4.215-2.715 6.09z" fill="#fff" fill-opacity=".3"/><path d="M32.473 49.985c-.313.156-.679.312-.73.572v.156c0 .052 0 .104.051.157.105.364.052.884.418 1.144.104.052.261.104.418.052.209-.104.156-.312.156-.468-.052-.104-.574-1.51-.313-1.613z" fill="#123517"/><path d="M62.29 19.592c.156-.833.26-1.665 0-2.394-.262-.78-.888-1.353-1.62-1.613-.574-.157-1.2-.157-1.827-.105-1.097 0-2.298-.052-3.342.313-1.67.624-2.193 2.238-1.2 3.695.626.936 1.514 1.561 2.088 2.55.522.937.94 2.238 1.044 3.227.052.312 0 .624.052.936.053.313.21.729.47.937.418.416.888.26 1.15.052.574-.312 1.096-.677 1.618-1.04.888-.573 3.08.051 2.454-1.666-.157-.417-.313-.885-.47-1.301-.26-.677-.522-1.405-.574-2.134 0-.468.104-.937.156-1.457z" fill="#FFDA55"/><path d="M59.627 27.138c.313-1.249-.366-2.55-.732-3.695-.365-1.197-.783-2.342-1.2-3.539-.314-.989-.68-1.977-.993-2.862-.104-.365-.26-.78-.522-1.041-.522-.52-1.044-.26-1.566 0-1.358.676-1.15 2.81-.94 3.955.417 1.978.417 3.955.522 6.037 0 .052 0 .104.052.156.052.104.157.104.261.104.366.052.679.052 1.044.104 0-.416 0-.78-.052-1.197 0-.312-.209-.728-.104-1.04.157-.52 1.358-1.041 1.828-.729.626.468.678 2.238.73 2.914 0 .26 0 .469.105.677.261.416.835.416 1.305.364.053 0 .157 0 .21-.052 0-.052.051-.104.051-.156z" fill="#FE5"/><path d="M54.77 38.691a29.075 29.075 0 01-2.82 4.736 27.434 27.434 0 01-5.587 5.673c-1.984 1.51-4.23 2.29-6.475 3.383-1.88.885-3.76 2.81-3.864 4.996-.157 3.383 7.52 1.51 9.033.937 5.588-2.186 10.392-5.153 14.308-9.732 2.037-2.394 3.655-5.153 4.7-8.067 1.618-4.371 1.462-9.316.156-13.74-.574-1.925-3.498-4.891-5.274-2.29-1.305 1.927-1.305 4.58-1.827 6.819-.575 2.394-1.306 4.996-2.35 7.285z" fill="#FFDA55"/><path d="M50.436 37.807c-2.924 5.985-8.25 10.408-14.203 13.635-1.097.624-2.35 1.145-3.238 2.03-.887.884-1.357 2.185-.679 2.966 1.045 1.093 3.03.78 4.439.416 2.924-.78 5.744-1.821 8.355-3.278 6.58-3.591 12.48-9.472 14.673-17.07.627-2.134.783-4.424.627-6.662-.157-2.03-.47-4.163-1.358-5.985-.052-.052-.052-.104-.105-.156-.052-.052-.104-.052-.156-.052-.627 0-1.306.104-1.88-.104-.836-.26-1.619.052-2.14.78-1.306 1.77-1.359 4.372-1.88 6.454-.627 2.394-1.41 4.84-2.455 7.026z" fill="#FE5"/><path d="M36.546 56.386c-.365.156-.679.416-.73.729v.208c0 .052.051.104.051.156.157.416.157.937.575 1.197.104.052.313.104.47 0 .209-.104.156-.364.104-.52-.052-.105-.73-1.614-.47-1.77z" fill="#123517"/><path d="M33.256 89.344c1.462 3.487-.156 7.546-3.707 9.003-3.499 1.457-7.572-.156-9.034-3.695-1.462-3.487-1.357-11.137 2.193-12.646 3.499-1.458 9.086 3.85 10.548 7.338z" fill="#F6BEA1"/><path d="M32.578 89.485c1.462 3.487-.157 7.546-3.708 9.004-3.498 1.457-7.571-.157-9.033-3.696-1.462-3.486-1.358-11.137 2.193-12.646 3.498-1.405 9.086 3.851 10.548 7.338z" fill="#FFCEB1"/><path d="M23.44 86.987c-.418 1.353-1.15 2.342-1.671 2.238-.522-.156-.575-1.405-.157-2.758.418-1.353 1.149-2.342 1.671-2.238.47.156.574 1.405.157 2.758z" fill="#FFECDF"/><path d="M78.53 25.369c-.418.208-.68.624-.836 1.093-.418 1.04-.836 2.081-1.097 3.174-.26 1.145-.209 2.29-.365 3.487-.105.677-.052 1.353.313 1.925.052.053.052.105.105.105.052.052.156 0 .208 0 .366-.105.627-.417.731-.729.157-.312.21-.676.262-1.04.209-1.25.574-2.499.94-3.748.208-.624.417-1.249.678-1.873.21-.52.575-1.093.731-1.614a.505.505 0 00-.052-.468c-.209-.573-1.149-.52-1.619-.312z" fill="#9DBE55"/><path d="M74.456 32.03c.105-1.873.21-4.163 1.045-5.829.104-.208.887.052.992.104.261.104.679.417.679.729v.156c-.522 2.238-.522 4.476-.731 6.766-.053.676-.418 1.145-1.15.936-.051 0-.104-.052-.156-.052-.052-.052-.104-.104-.104-.156-.575-.78-.627-1.665-.575-2.654zM78.738 28.803c-.992 2.03-1.67 4.892-1.88 5.673-.052.208-.104.416 0 .572.105.157.314.209.523.157 1.096-.26 1.723-1.562 2.14-2.498.418-.99.784-2.03 1.254-2.967.417-.78.94-1.405 1.357-2.186.105-.208 0-.416-.156-.572-1.306-1.093-2.402.052-3.238 1.821z" fill="#788B3C"/><path d="M74.822 61.226c1.253 3.175 2.506 6.35 3.342 9.68.418 1.77 1.096 3.435 1.932 5.048-.366-.624.365-2.966.47-3.747.783-4.788 1.88-9.524 2.663-14.312.679-4.111 1.097-8.43 1.044-12.646-.052-3.487.261-8.379-3.185-10.513-3.707-2.29-9.712-.832-10.809 3.695-.261 1.145-.261 2.29-.209 3.487.366 6.662 2.35 13.167 4.752 19.308z" fill="#FA7E0A"/><path d="M79.991 72.311c.784-4.788 1.88-9.524 2.663-14.312.68-4.111 1.097-8.43 1.045-12.646-.052-3.487.26-8.379-3.186-10.513-11.696-2.602-.626 38.252-.522 37.471z" fill="#FF9303"/><path d="M75.396 35.048c0 .209-.052.417-.156.625-.314.52-.836.78-1.253 1.145-.366.364-.68.78-.888 1.197-1.045 1.873-.992 4.06-.94 6.141.052 2.446.418 4.892.94 7.286-.105-.52-.47-.989-.679-1.457-.679-1.51-1.097-3.175-1.305-4.84-.47-3.33-.21-6.974 2.14-9.576.314-.364 1.985-1.717 2.141-.52z" fill="#E44F00"/><path d="M31.534 71.374c-.732-.052-1.15-.104-1.88-.156.313-3.643 1.253-5.412 4.02-7.754.47.572.732.885 1.202 1.457-2.298 1.926-3.081 3.435-3.342 6.453zM77.59 77.724c-.366 1.717-2.403 2.81-2.403 2.81s-1.462-1.77-1.148-3.487c.365-1.718 2.402-2.81 2.402-2.81s1.462 1.77 1.148 3.487zM13.887 43.391c-.104.416-.26.885 0 1.25.21.311.575.363.888.416.366 0 .679-.053 1.044.051 2.09.52-.104 2.395-.417 3.28-.47 1.404 1.827 2.497 1.67 4.007-.156 1.196-1.88 1.977-1.67 3.174.156.833 1.149 1.353 1.096 2.186-.052.52-.47.937-.887 1.3-1.358 1.25-2.402 2.811-2.977 4.58-.626-1.3-1.932-2.185-3.028-3.018-1.097-.832-1.724-1.925-2.455-3.07-.417-.677-.574-1.614.053-2.134.417-.364 1.148-.416 1.253-.989.052-.208-.052-.416-.21-.624-.573-.99-1.513-1.822-1.722-2.967-.052-.364-.052-.832.26-1.093.419-.312 1.045-.156 1.515-.364.366-.156.575-.572.627-.989.156-1.249-.992-1.873-1.619-2.81-.835-1.197-.313-2.862 1.358-2.29.209.052.47.156.679.208.208.052.47.104.678 0a.81.81 0 00.314-.416c.156-.416.156-.833.156-1.301.053-.677.261-1.145.94-1.353 1.776-.52 2.768 1.509 2.454 2.966 0-.052 0-.052 0 0z" fill="#7ACC94"/><path d="M12.06 41.57c-.157 1.04 0 2.03.052 3.07l.157 3.07c.104 2.03.156 4.112.26 6.142.105 2.03.105 4.111.21 6.193 0 2.081.052 4.111 0 6.193h-.157l-.313-6.141-.261-6.193c-.053-2.082-.157-4.112-.157-6.193v-3.07c.052-.99 0-2.03.209-3.071z" fill="#3F433C"/><path d="M4.175 38.343c.261 1.77-1.358 3.435-1.358 3.435S.833 40.58.572 38.863c-.209-1.77 1.41-3.434 1.41-3.434s1.984 1.197 2.193 2.914z" fill="#7ACC94"/><defs><clipPath id="clip0"><path fill="#fff" d="M2.852 109.829h97.429V124H2.852z"/></clipPath></defs></svg>