<svg width="378" height="176" viewBox="0 0 378 176" fill="none" xmlns="http://www.w3.org/2000/svg"><circle cx="188.5" cy="175.5" r="161.5" fill="#F4F8FC"/><path d="M138.98 120.386l-98.973 56.08h296.918l-98.972-56.444-98.973.364z" fill="#CAD7E7"/><path d="M15.762 182.122a.252.252 0 01-.212-.126c-.068-.116-.02-.262.096-.329l88.197-49.504c.116-.068.261-.02.328.097.068.116.02.261-.096.329l-88.197 49.504a.261.261 0 01-.116.029zM371.249 187.749a.271.271 0 01-.083-.031l-108.118-61.246a.24.24 0 01-.091-.325.237.237 0 01.324-.093L371.398 187.3a.24.24 0 01.092.326.238.238 0 01-.241.123z" fill="#59221D"/><g clip-path="url(#clip0_134_49)"><path d="M287.513 67.915a1.026 1.026 0 00.083-1.447l-3.346-3.71-1.537 1.376 3.345 3.71a1.039 1.039 0 001.455.07zM232.771 68.51a1.026 1.026 0 01-.082-1.448l3.345-3.71 1.538 1.377-3.334 3.71a1.043 1.043 0 01-1.467.07zM282.713 61.811h-45.27v1.797h45.27v-1.797z" fill="#7F7DC6"/><path d="M238.123 65.464s11.467 13.127 6.197 15.975c-5.892 3.173-8.568-15.368-8.568-15.368l2.371-.607z" fill="#F37453"/><path d="M245.213 79.07l9.343 8.12-.388 7.737s-10.728-5.437-12.441-14.47l3.486-1.388zM235.752 66.07h2.641c.939 0 1.69-.746 1.69-1.68v-3.232h-2.641c-.939 0-1.69.747-1.69 1.68v3.233z" fill="#F37453"/><path d="M256.352 97.541h9.002V74.764c0-2.474-2.019-4.481-4.507-4.481-2.488 0-4.507 2.007-4.507 4.48v22.778h.012z" fill="#332938"/><path d="M277.701 169.42h-12.055l-1.525-9.965h7.864l.41 2.661c.047.327.118.607.2.852.387 1.108 1.15 1.575 2.418 2.31.07.035.141.082.223.128 1.303.759 1.913 1.914 2.206 2.801.036.105.059.198.082.28.153.56.177.933.177.933z" fill="#2C2334"/><path d="M275.013 165.279h-3.803c-.845 0-1.667-.875-1.831-1.948l-.059-.362h3.275c.387 1.109 1.15 1.575 2.418 2.31z" fill="#7F7DC6"/><path d="M272.384 162.118h-7.853l-.457-2.987h7.852l.458 2.987z" fill="#F37453"/><path d="M277.443 168.208c.035.105.059.198.082.28h-12.019l-.047-.28h11.984z" fill="#7F7DC6"/><path d="M271.926 159.131l-7.676 1.155-.176-1.155h7.852z" fill="#332938"/><path d="M274.661 156.633l-.071.315a45.832 45.832 0 01-.551 2.183h-9.977l-5.645-36.932-1.174-7.62-.047-.315-.235-1.482h10.763c.129.268.387.77.728 1.482.047.105.094.198.141.315 2.781 5.834 10.188 23.513 6.068 42.054z" fill="#FAE2D7"/><path d="M272.348 160.729h-3.744c-.481 0-.798.501-.704 1.12.094.618.563 1.12 1.056 1.12h3.744c.482 0 .798-.502.705-1.12-.094-.619-.564-1.12-1.057-1.12z" fill="#2C2334"/><path d="M265.107 159.131h-.247l-5.551-37.363h.246l5.552 37.363z" fill="#838C9C"/><path d="M274.661 156.635l-.071.315h-10.857l-.046-.315h10.974z" fill="#838C9C"/><path d="M240.037 169.423h12.054l1.338-9.965h-7.864l-.352 2.66a4.885 4.885 0 01-.188.852c-.364 1.109-1.115 1.575-2.371 2.31-.07.036-.141.082-.211.129-1.291.758-1.878 1.914-2.16 2.8-.023.105-.058.199-.082.28-.152.561-.164.934-.164.934z" fill="#2C2334"/><path d="M242.643 165.279h3.802c.846 0 1.655-.875 1.796-1.949l.047-.361h-3.275c-.352 1.108-1.115 1.575-2.37 2.31z" fill="#7F7DC6"/><path d="M245.213 162.119h7.852l.399-2.988h-7.852l-.399 2.988z" fill="#F37453"/><path d="M240.272 168.209c-.035.105-.059.198-.082.28h12.019l.035-.28h-11.972z" fill="#7F7DC6"/><path d="M245.611 159.132l7.7 1.155.152-1.155h-7.852z" fill="#332938"/><path d="M259.673 112.782l-.2 1.482-.047.315-1.021 7.62v.012l-4.953 36.931h-9.977c-.211-.723-.422-1.446-.587-2.182-.035-.105-.058-.21-.082-.315-4.472-18.541 2.348-36.22 4.93-42.054.047-.117.094-.21.141-.315.317-.712.563-1.214.692-1.482h11.104v-.012z" fill="#FAE2D7"/><path d="M245.212 160.73h3.745c.481 0 .809.501.727 1.12-.082.618-.54 1.12-1.033 1.12h-3.744c-.481 0-.81-.502-.727-1.12.093-.619.551-1.12 1.032-1.12z" fill="#2C2334"/><path d="M252.43 159.131h.247l4.835-37.363h-.246l-4.836 37.363z" fill="#838C9C"/><path d="M242.818 156.633c.024.105.047.21.083.315h10.856l.047-.315h-10.986z" fill="#838C9C"/><path d="M256.375 121.766h4.483l-2.523 3.104-1.96-3.104z" fill="#2C2334"/><path d="M268.616 114.578h-20.868c.047-.116.093-.21.14-.315h20.576c.058.094.094.199.152.315z" fill="#7F7DC6"/><path d="M257.936 114.413h-.317v3.524h.317v-3.524zM259.027 114.578h-.317v5.146h.317v-5.146z" fill="#7F7DC6"/><path d="M282.091 65.464s-11.467 13.127-6.197 15.975c5.892 3.173 8.568-15.368 8.568-15.368l-2.371-.607z" fill="#F37453"/><path d="M275.002 79.07l-12.172 6.522 3.216 9.335s10.728-5.437 12.442-14.47l-3.486-1.388z" fill="#F37453"/><path d="M265.072 102.092h-14.144c-.68-.584-2.781-2.532-2.734-3.71.293-6.337 7.159-13.303 7.159-13.303h6.08l1.397.513 3.92 8.95-1.678 7.55z" fill="#7F7DC6"/><path d="M248.534 112.862s1.855-3.244 2.254-4.877c.622-2.614.141-5.893.141-5.893h14.143s-.563 2.952.282 5.367c.375 1.086 1.655 3.968 2.418 5.368l-19.238.035z" fill="#F37453"/><path d="M253.784 76.621v.105c.012.619.164 1.214.422 1.75.153.316.341.607.564.864a4.48 4.48 0 001.303 1.085c.035.023.082.047.117.07a4.825 4.825 0 002.265.56c.798 0 1.561-.198 2.219-.525.058-.023.117-.058.176-.093.023-.012.058-.023.082-.047a4.649 4.649 0 001.49-1.412c.059-.081.106-.163.153-.245a4.21 4.21 0 00.563-2.112c0-2.45-2.089-4.446-4.683-4.446-2.57 0-4.671 1.996-4.671 4.446z" fill="#332938"/><path d="M256.074 85.086h4.777v-5.531h-4.777v5.53z" fill="#F37453"/><path d="M256.07 82.945l2.946-.361-2.946 1.785v-1.424z" fill="#332938"/><path d="M253.734 77.192v3.455c0 1.633 1.045 2.345 2.336 2.59.528.105 1.103.128 1.667.117 1.537-.047 2.934-.444 2.934-.444v-5.718c0-1.96-1.55-3.558-3.463-3.558-.962 0-1.819.396-2.453 1.038a3.561 3.561 0 00-.974 1.937v.012c-.012.035-.012.081-.012.117a3.152 3.152 0 00-.035.454z" fill="#F37453"/><path d="M253.734 78.453v1.796a.66.66 0 00.2.035c.457 0 .821-.42.821-.933 0-.513-.375-.933-.821-.933a.657.657 0 00-.2.034z" fill="#C75450"/><path d="M253.769 76.751c0-.011.012-.011.023-.023.622-.595 1.385-1.038 2.289-1.038 1.385 0 3.052.793 4.401 1.598.071.047.141.082.2.129.728.455 1.35.898 1.737 1.19.059.046.117.082.164.128.364-.63.564-1.353.564-2.112v-.152c-.798-1.225-2.265-2.8-5.082-3.302-1.702-.303-2.477.432-3.334.782a4.304 4.304 0 00-.939 2.672v.012a.439.439 0 00-.023.116z" fill="#FAE2D7"/><path d="M260.847 80.39a1.58 1.58 0 001.584-1.575 1.58 1.58 0 00-1.584-1.575 1.58 1.58 0 00-1.585 1.575c0 .87.71 1.575 1.585 1.575z" fill="#F37453"/><path d="M258.747 80.073a.976.976 0 000-1.386.99.99 0 00-1.394 0 .976.976 0 000 1.386.99.99 0 001.394 0z" fill="#C75450"/><path d="M257.114 80.458l-2.206.081c0 .012 1.15 1.564 2.206-.081z" fill="#fff"/><path d="M257.068 78.51c0 .175.14.315.317.315.176 0 .316-.14.316-.315a.314.314 0 00-.316-.315c-.177.012-.317.14-.317.315zM254.333 78.51c0 .175.141.315.317.315a.315.315 0 100-.63c-.176.012-.317.14-.317.315zM256.352 79.968v-.245l-.739-.011V79.7l-.012-.035v-.327h-.246v.327a.277.277 0 00.082.222c.059.058.153.093.235.07l.68.011z" fill="#332938"/><path d="M261.434 85.079h-6.08s-1.01 5.81.716 5.81c1.725 0 5.364-5.81 5.364-5.81zM284.462 66.07h-2.641c-.939 0-1.69-.746-1.69-1.68v-3.232h2.64c.939 0 1.691.747 1.691 1.68v3.233z" fill="#F37453"/></g><path d="M356.175 30.808a16.127 16.127 0 011.342 6.458c0 9.44-8.137 17.098-18.174 17.098-9.517 0-17.316-6.874-18.107-15.636a13.05 13.05 0 01-9.401-1.782c-5.038 6.923-14.072 11.532-24.38 11.532-11.109 0-20.741-5.364-25.49-13.197-1.747 2.643-4.565 4.696-7.934 5.712 0 .078.01.165.01.242 0 2.857-2.307 5.17-5.154 5.17s-5.154-2.313-5.154-5.17c0-.154.01-.3.019-.445-5.414-1.869-9.227-6.448-9.227-11.793 0-7.019 6.573-12.702 14.69-12.702 3.919 0 7.48 1.326 10.115 3.485C261.791 8.52 273.451 0 287.455 0c11.476 0 21.369 5.712 25.934 13.971 6.563-2.982 14.304-.058 17.277 6.526.212.474.405.968.559 1.471a19.159 19.159 0 0118.57 1.317 5.146 5.146 0 017.114-1.597 5.18 5.18 0 011.592 7.135 5.16 5.16 0 01-2.326 1.985z" fill="#8291C5"/><path d="M244.957 35.198c.623 0 1.129-.507 1.129-1.133 0-.625-.506-1.133-1.129-1.133-.624 0-1.13.508-1.13 1.133 0 .626.506 1.133 1.13 1.133zM253.643 27.084a1.13 1.13 0 001.129-1.133 1.13 1.13 0 00-1.129-1.132 1.13 1.13 0 00-1.129 1.132 1.13 1.13 0 001.129 1.133zM257.745 30.027a1.13 1.13 0 001.129-1.132 1.13 1.13 0 00-1.129-1.133 1.13 1.13 0 00-1.129 1.133 1.13 1.13 0 001.129 1.133zM269.366 27.084a1.13 1.13 0 001.129-1.133 1.13 1.13 0 00-1.129-1.132 1.13 1.13 0 00-1.129 1.132 1.13 1.13 0 001.129 1.133zM268.661 36.34c.623 0 1.129-.507 1.129-1.133 0-.625-.506-1.132-1.129-1.132-.624 0-1.13.507-1.13 1.133 0 .625.506 1.132 1.13 1.132zM281.305 32.923c.623 0 1.129-.508 1.129-1.133 0-.626-.506-1.133-1.129-1.133-.624 0-1.13.507-1.13 1.133 0 .625.506 1.133 1.13 1.133zM278.583 37.037c.623 0 1.129-.507 1.129-1.133 0-.625-.506-1.132-1.129-1.132a1.13 1.13 0 00-1.129 1.133 1.13 1.13 0 001.129 1.132zM279.229 17.75a1.131 1.131 0 000-2.266c-.623.001-1.129.509-1.129 1.134 0 .626.506 1.133 1.129 1.133zM283.09 15.544c.624 0 1.13-.508 1.13-1.133 0-.626-.506-1.133-1.13-1.133-.623 0-1.129.507-1.129 1.133s.506 1.133 1.129 1.133zM276.411 12.28a1.13 1.13 0 001.129-1.132 1.13 1.13 0 00-1.129-1.133 1.13 1.13 0 00-1.129 1.133 1.13 1.13 0 001.129 1.133zM292.993 23.715a1.13 1.13 0 001.129-1.133 1.13 1.13 0 00-1.129-1.132 1.13 1.13 0 00-1.129 1.133 1.13 1.13 0 001.129 1.132zM289.316 41.801c.623 0 1.129-.507 1.129-1.133 0-.625-.506-1.133-1.129-1.133-.624 0-1.13.508-1.13 1.133 0 .626.506 1.133 1.13 1.133zM333.897 20.026c.623 0 1.129-.507 1.129-1.133 0-.625-.506-1.133-1.129-1.133-.624 0-1.13.508-1.13 1.133 0 .626.506 1.133 1.13 1.133zM241.173 46.042a1.13 1.13 0 001.129-1.133 1.13 1.13 0 00-1.129-1.133 1.13 1.13 0 00-1.129 1.133 1.13 1.13 0 001.129 1.133zM300.898 11.923c.623 0 1.129-.508 1.129-1.133 0-.626-.506-1.133-1.129-1.133-.624 0-1.13.507-1.13 1.133 0 .625.506 1.133 1.13 1.133zM302.027 17.218a1.13 1.13 0 001.129-1.132 1.13 1.13 0 00-1.129-1.133 1.13 1.13 0 00-1.129 1.133 1.13 1.13 0 001.129 1.133zM299.759 32.923c.623 0 1.129-.508 1.129-1.133 0-.626-.506-1.133-1.129-1.133-.624 0-1.13.507-1.13 1.133 0 .625.506 1.133 1.13 1.133zM311.138 27.084c.623 0 1.129-.507 1.129-1.133 0-.625-.506-1.132-1.129-1.132a1.13 1.13 0 00-1.129 1.132 1.13 1.13 0 001.129 1.133zM313.397 30.027c.623 0 1.129-.507 1.129-1.132 0-.626-.506-1.133-1.129-1.133-.624 0-1.13.507-1.13 1.133 0 .625.506 1.133 1.13 1.133zM324.65 22.582c.624 0 1.13-.507 1.13-1.133 0-.625-.506-1.132-1.13-1.132-.623 0-1.129.507-1.129 1.132 0 .626.506 1.133 1.129 1.133zM328.53 43.583a1.13 1.13 0 001.129-1.133 1.13 1.13 0 00-1.129-1.133 1.13 1.13 0 00-1.129 1.133 1.13 1.13 0 001.129 1.133zM333.607 41.094a1.13 1.13 0 001.129-1.133 1.13 1.13 0 00-1.129-1.132 1.13 1.13 0 00-1.129 1.132 1.13 1.13 0 001.129 1.133zM337.728 49.188a1.13 1.13 0 001.129-1.132 1.13 1.13 0 00-1.129-1.133 1.13 1.13 0 00-1.129 1.133 1.13 1.13 0 001.129 1.132zM354.204 28.895c.623 0 1.129-.507 1.129-1.133s-.506-1.133-1.129-1.133c-.624 0-1.13.507-1.13 1.133s.506 1.133 1.13 1.133zM345.594 38.17a1.131 1.131 0 000-2.266c-.623 0-1.129.508-1.129 1.134 0 .625.506 1.132 1.129 1.132zM297.454 82.461a1.13 1.13 0 001.129-1.133 1.13 1.13 0 00-1.129-1.132c-.623 0-1.129.507-1.129 1.132 0 .626.506 1.133 1.129 1.133z" fill="#fff"/><path d="M301.904 84.446v-4.638c0-1.868 1.892-3.379 4.208-3.379v1.278c.01 2.663-1.554 5.16-4.208 6.74z" fill="#8291C5"/><path d="M302.174 80.196a7.536 7.536 0 01-4.402-6.846v-3.262a4.406 4.406 0 014.402 4.415v5.693zM258.191 14.746c-.01.087-.029.174-.039.252-.347.029-.704.019-1.052-.03-2.548-.358-4.333-2.74-3.967-5.334.01-.087.029-.174.039-.252.348-.029.705-.02 1.052.03 2.548.348 4.324 2.74 3.967 5.334zM313.216 42.843c.077.038.154.087.222.125a4.445 4.445 0 01-.387.978c-1.216 2.276-4.063 3.128-6.36 1.898-.077-.039-.154-.087-.222-.126.087-.339.222-.668.386-.978 1.216-2.285 4.063-3.137 6.361-1.897zM340.597 60.086c.077.04.155.078.222.126a4.494 4.494 0 01-.386.978c-1.216 2.275-4.063 3.127-6.36 1.898-.078-.039-.155-.087-.222-.126.086-.339.222-.668.386-.978 1.216-2.285 4.063-3.137 6.36-1.898z" fill="#8291C5"/><path d="M316.323 38.68h-.483v131.412h.483V38.679z" fill="#59221D"/><path d="M316.323 81.328h-.483a9.174 9.174 0 015.28-8.258c5.559-2.614 9.072-7.678 11.051-11.464 2.143-4.124 2.982-7.668 2.992-7.707l.473.107c-.01.039-.849 3.63-3.021 7.804-2.008 3.863-5.598 9.023-11.273 11.695a8.676 8.676 0 00-5.019 7.823zM316.323 69.333h-.483a7.525 7.525 0 00-4.874-7.049c-6.119-2.265-10.24-6.08-12.624-8.888-2.577-3.04-3.697-5.519-3.745-5.615l.444-.194c.01.029 1.139 2.527 3.677 5.519 2.336 2.759 6.39 6.516 12.412 8.733 3.108 1.142 5.193 4.163 5.193 7.494z" fill="#59221D"/><path d="M300.784 55.942a8.633 8.633 0 00-6.003-2.41h-15.636c-3.281 0-5.945-2.673-5.945-5.964v-2.353h.482v2.353c0 3.02 2.452 5.48 5.463 5.48h15.636a9.16 9.16 0 016.341 2.546l-.338.348zM316.323 110.616h-.483c0-3.892-1.698-7.552-4.671-10.05l-4.893-4.114a13.009 13.009 0 01-4.652-9.992V79.72h.482v6.739c0 3.727 1.631 7.232 4.478 9.624l4.894 4.115a13.562 13.562 0 014.845 10.417z" fill="#59221D"/><path d="M376.492 173.633c0 1.491-.203 2.982-.598 4.425h-34.013a16.682 16.682 0 01-.598-4.425c0-9.43 7.885-17.069 17.604-17.069 9.729 0 17.605 7.639 17.605 17.069z" fill="#FFC200"/><path d="M348.435 170.867a.259.259 0 01-.164-.058l-7.133-6.477a.243.243 0 01-.019-.339.24.24 0 01.337-.019l7.133 6.477a.243.243 0 01.019.339c-.038.058-.106.077-.173.077zM376.482 173.11l-7.161-2.478-10.192 2.749v4.677h-.483v-10.331l-7.654-9.362c.145-.068.299-.146.454-.213l7.2 8.81v-10.408h.483v5.858l5.79-4.832c.174.068.348.126.522.194l-6.312 5.257v9.828l16.523-4.464.145.465-5.685 1.53 6.351 2.178c.01.194.019.368.019.542z" fill="#fff"/><path d="M367.699 178.106l-108.851-.377s8.059-22.259 48.847-23.712c15.52-.551 7.683 12.529 11.64 10.66 8.513-4.037 14.593-6.177 18.463-4.085 6.284 3.398-.926 10.291 2.915 10.011 3.842-.281 9.575-3.873 13.899-1.104s-2.114 5.528 0 5.809c2.113.281 12.904-5.073 13.087 2.798z" fill="#98C8DB"/><g clip-path="url(#clip1_134_49)"><path d="M142.767 91.05l-1.947.487a1.962 1.962 0 01-2.384-1.411l-.389-1.508c-.39-1.484.511-2.992 1.995-3.381l3.844-.997.876 3.405c.365 1.508-.511 3.016-1.995 3.405z" fill="#F37453"/><path d="M141.526 88.547c-.219.413-2.92 9.9-16.302 10.313-11.996.365-19.514-7.978-19.831-8.367a3.372 3.372 0 01.487-4.768c1.435-1.191 3.577-.973 4.769.463.097.121 5.84 6.153 14.38 5.886 9.416-.292 13.528-5.546 13.674-5.814l-.024.025 2.847 2.262zM75.831 120.021l20.366 5.643-4.331 11.894-20.025-10.167 3.99-7.37z" fill="#F37453"/><path d="M75.831 120.021l-3.163 7.881 4.015 1.946 3.406-8.635-4.258-1.192z" fill="#703D40"/><path d="M61.938 132.255l5.863-15.299 1.022.389.317.122 3.309 1.265.56.219 2.822 1.07-3.115 8.148c-.68-.268-1.24-.341-1.727-.243a2.078 2.078 0 00-.414.121c-.316.122-.584.317-.851.584l-.292.292c-.22.243-.438.535-.657.827-.098.122-.17.243-.244.365-.219.316-.486.681-.73 1.046l-.024.024c-.097.122-.17.219-.268.341-1.29 1.435-3.017 1.41-4.185 1.167-.121-.024-.219-.049-.34-.073-.633-.17-1.047-.365-1.047-.365z" fill="#FAE2D7"/><path d="M70.258 127.878l1.704-3.624 2.627 1.216c.487.243.706.827.487 1.314l-.852 1.848c-.243.487-.827.705-1.314.487l-2.652-1.241z" fill="#FAE2D7"/><path d="M62.96 132.622l5.839-15.275.316.122-5.84 15.226c-.097-.024-.194-.049-.316-.073z" fill="#C47B6E"/><path d="M67.704 121.067l-.17-.389.438-.17 4.477-1.776.56.219-5.256 2.092-.049.024zM67.485 131.549l-2.093-4.329-.146-.317.341-.17.049-.024 2.165 4.475s0 .025-.024.025c-.097.121-.195.218-.292.34zM70.529 127.32l-.336.242.74 1.025.336-.242-.74-1.025zM69.372 128.168l-.336.242.74 1.025.336-.242-.74-1.025zM68.217 128.987l-.335.242.74 1.025.336-.242-.74-1.025z" fill="#C47B6E"/><path d="M92.887 119.727l-4.306 9.437a6.293 6.293 0 002.554 8.051c3.407 1.995 7.787.706 9.587-2.821l3.674-7.273-11.509-7.394z" fill="#F37453"/><path d="M103.69 130.77l-7.396-4.379-.049-.024-.146-.073-6.52-3.843 8.296-13.28c1.776-3.819 6.059-5.692 10.025-4.549l.219.073c.194.049.365.122.535.195 1.801.705 3.163 2.7 3.771 4.864.487 1.752.438 3.6-.291 4.962l-8.444 16.054z" fill="#703D40"/><path d="M96.27 126.393l-.05-.024-.145-.073 11.801-21.672.219.073-11.825 21.696zM95.393 133.639l-4.307 1.46s.268-2.895 4.307-1.46z" fill="#703D40"/><path d="M124.47 152.299l-7.859-23.156 14.185-3.624 3.333 25.782-9.659.998z" fill="#F37453"/><path d="M124.47 152.299l9.587-2.116-.73-5.108-10.512 2.384 1.655 4.84z" fill="#703D40"/><path d="M145.224 157.625l-18.492 4.354-.292-1.216-.097-.365-.949-3.989-.171-.681-.803-3.405 9.83-2.311c.195.827.487 1.411.901 1.8.121.122.243.219.389.316.316.219.681.341 1.095.438.146.024.316.073.487.073.389.049.778.073 1.216.073h.511c.462 0 .973.024 1.484.024h.025c.17 0 .34.025.486.049 2.19.292 3.309 1.97 3.845 3.259l.146.365c.316.706.389 1.216.389 1.216z" fill="#FAE2D7"/><path d="M135.614 152.517l-4.599.73-.535-3.308a1.137 1.137 0 01.949-1.314l2.336-.365a1.137 1.137 0 011.313.949l.536 3.308z" fill="#FAE2D7"/><path d="M144.908 156.412l-18.443 4.354-.098-.39 18.395-4.329.146.365z" fill="#C47B6E"/><path d="M130.747 159.402l-.268.413-.413-.292-4.648-3.137-.146-.681 5.426 3.648.049.049zM140.917 152.786l-2.774 4.816-.194.365-.365-.219-.049-.024 2.871-4.986h.024c.171 0 .341.024.487.048zM135.385 151.236l-.498 1.372.457.166.498-1.372-.457-.166zM136.961 151.819l-.498 1.371.458.166.498-1.372-.458-.165zM138.515 152.387l-.498 1.372.458.166.498-1.372-.458-.166z" fill="#C47B6E"/><path d="M109.53 124.665l9.222 7.686c2.871 2.408 7.105 2.238 9.781-.365 3.285-3.186 3.188-8.488-.219-11.553l-7.007-6.324-11.777 10.556z" fill="#F37453"/><path d="M125.175 116.006l-7.153 6.932-.049.049-.146.122-6.302 6.105-12.287-13.329c-3.699-3.162-4.502-8.538-1.995-12.6l.145-.219c.122-.194.244-.365.39-.559 1.338-1.776 3.99-2.724 6.569-2.724 2.093 0 4.161.608 5.451 1.873l15.377 14.35z" fill="#703D40"/><path d="M118.022 122.939l-.049.048-.121.146-20.585-19.847.146-.219 20.609 19.872z" fill="#C47B6E"/><path d="M122.571 126.102l3.845 3.599c-.025 0-3.139 1.314-3.845-3.599zM117.682 69.772c.024 1.653-.511 3.088-1.217 3.21-.681.146-1.265-1.094-1.289-2.724-.024-1.654.511-3.09 1.216-3.21.682-.147 1.266 1.07 1.29 2.724zM112.84 66.658c1.095 1.07 1.63 2.457 1.192 3.065-.438.608-1.679.219-2.774-.852-1.095-1.07-1.63-2.456-1.192-3.064.438-.608 1.679-.22 2.774.851z" fill="#703D40"/><path d="M110.553 67.899c1.63.51 2.846 1.362 2.676 1.921-.146.56-1.606.608-3.236.098-1.63-.511-2.847-1.363-2.677-1.922.146-.535 1.582-.584 3.237-.097z" fill="#703D40"/><path d="M110.042 69.358c1.703-.146 3.138.194 3.211.754.073.583-1.265 1.167-2.968 1.313-1.703.146-3.139-.195-3.212-.754-.073-.56 1.265-1.168 2.969-1.314z" fill="#703D40"/><path d="M112.864 83.322l-.487-.122-4.282-2.554 1.265-5.959 5.11 1.095-1.606 7.54z" fill="#F37453"/><path d="M113.691 79.43l-3.066-1.07 2.749 2.602.317-1.533z" fill="#703D40"/><path d="M113.691 79.89l-4.842-1.945 1.144-5.351c.414-1.946 2.409-3.186 4.477-2.749 2.044.438 3.382 2.384 2.968 4.33l-.9 4.232c-.316 1.435-1.533 2.019-2.847 1.484z" fill="#F37453"/><path d="M112.456 69.628l-2.737-.582-.94 4.426 2.737.581.94-4.425z" fill="#703D40"/><path d="M117.219 75.125l-.413 1.946c-.073 0-.146 0-.219-.025-.487-.097-.779-.632-.682-1.191.122-.56.609-.925 1.095-.803.098 0 .171.024.219.073zM113.448 75.366a1.086 1.086 0 01-1.29.827 1.085 1.085 0 01-.827-1.29 1.085 1.085 0 011.289-.826c.584.121.949.705.828 1.289z" fill="#C75450"/><path d="M113.642 74.418c-.048.194-.219.291-.413.267-.195-.048-.292-.219-.268-.413.049-.195.219-.292.414-.268.194.049.316.243.267.414zM116.587 75.05c-.049.195-.219.292-.414.268-.194-.049-.292-.22-.267-.414.048-.194.219-.292.413-.267a.38.38 0 01.268.413zM115.151 76.387c-.024 0-.024 0-.049-.025l-.608-.121.049-.268.681.146.024-.024.073-.34.268.048-.073.34a.26.26 0 01-.146.22c-.073.024-.146.024-.219.024zM114.057 77.897c-.609-.122-1.022-.925-1.047-.949l.219-.097s.39.754.901.827l-.049.243c0-.024-.024-.024-.024-.024zM115.991 71.428c.649-.258.68-1.712.069-3.247-.612-1.535-1.634-2.57-2.283-2.312s-.68 1.712-.068 3.247c.611 1.535 1.633 2.57 2.282 2.312z" fill="#703D40"/><path d="M110.56 74.664a1.727 1.727 0 10-3.089-1.544 1.727 1.727 0 003.089 1.544z" fill="#F37453"/><path d="M94.397 110.706l24.307-1.094V91.418c-.244-3.04-1.752-5.838-4.112-7.76l-5.256-2.675c-2.847-1.435-6.326-.17-7.543 2.773l-7.397 26.95z" fill="#E29760"/><path d="M100.625 50.529l-.414 1.97a1.963 1.963 0 001.509 2.31l1.508.317a2.778 2.778 0 003.285-2.14l.803-3.868-3.431-.706c-1.46-.34-2.944.609-3.26 2.117z" fill="#F37453"/><path d="M103.204 51.649c-.389.243-9.756 3.38-9.562 16.734.195 11.991 8.857 19.118 9.27 19.434a3.386 3.386 0 004.745-.705 3.401 3.401 0 00-.681-4.743c-.146-.097-6.399-5.546-6.545-14.108-.146-9.437 4.939-13.766 5.182-13.937l-.024.025-2.385-2.7z" fill="#F37453"/><path d="M102.62 75.265l-7.226 4.5 8.029 9.56s3.212.096 4.356-1.484c1.167-1.606.803-3.576.803-3.576l-5.962-9z" fill="#E29760"/></g><g clip-path="url(#clip2_134_49)"><path d="M184.926 88.091c1.579-2.781.628-6.29-2.123-7.838-2.75-1.547-6.26-.546-7.838 2.235-1.578 2.781-.628 6.29 2.123 7.838 2.751 1.547 6.26.546 7.838-2.235zM208.359 75.591c.946-3.052-.735-6.278-3.753-7.205-3.019-.927-6.233.795-7.179 3.848-.946 3.052.735 6.278 3.753 7.205 3.019.928 6.233-.795 7.179-3.847z" fill="#A35A5F"/><path d="M210.125 58.916a5.312 5.312 0 00-6.646 3.497l-3.144 10.158 4.772 1.465a3.888 3.888 0 004.862-2.553l2.52-8.116a3.558 3.558 0 00-2.364-4.451z" fill="#A35A5F"/><path d="M204.807 64.234s9.489.61 8.184-10.047c-1.282-10.525-6.434-15.32-6.434-15.32l-2.709.699.959 24.668z" fill="#A35A5F"/><path d="M201.439 41.364l6.345-1.132-.402-2.22a1.49 1.49 0 00-1.728-1.2l-8.575 1.521a3.754 3.754 0 004.36 3.031z" fill="#A35A5F"/><path d="M177.076 112.769h28.735l-1.304-43.053-9.98 4.119-5.888 1.399-8.396 6.739-3.167 30.796z" fill="#fff"/><path d="M195.016 77.023l-6.099-.621-1.149-6.117h5.877l1.371 6.739z" fill="#A35A5F"/><path d="M214.754 161.03h-15.622l-1.996-9.37h10.192c.067.3.133.566.223.821.479 1.41 1.327 2.054 2.72 2.854.302.177.625.355.982.544 1.739.965 2.631 2.464 3.077 3.597.056.122.089.244.134.366.234.699.29 1.188.29 1.188z" fill="#fff"/><path d="M210.271 155.324h-3.813c-1.494 0-2.866-1.21-3.056-2.697l-.022-.156h4.17c.48 1.421 1.327 2.065 2.721 2.853z" fill="#CF837E"/><path d="M201.017 151.56s-.045 1.432-.547 2.043c-.702.865-2.743.865-2.743.865l-.591-2.819 3.881-.089z" fill="#332938"/><path d="M214.33 159.476c.056.133.09.255.134.366h-15.588l-.078-.366h15.532z" fill="#CF837E"/><path d="M200.76 159.586l.357.167c-.045.089 1.617-3.253 4.137-3.253h6.925a4.147 4.147 0 00-.491-.366h-6.445c-2.766 0-4.46 3.43-4.483 3.452z" fill="#CF837E"/><path d="M194.125 131.099c2.096 4.141 1.271 5.34.713 7.239-.914 3.13.424 8.037 1.416 10.946.034.1.056.2.101.3a34.59 34.59 0 00.78 2.076h10.181l-.089-2.087-.011-.3s-.413-7.261-.759-18.551h-12.511c.056.122.123.255.179.377z" fill="#A35A5F"/><path d="M202.543 152.926h4.193c.803 0 1.427-.611 1.394-1.366-.045-.755-.725-1.365-1.528-1.365h-4.192c-.803 0-1.428.61-1.394 1.365.033.755.724 1.366 1.527 1.366z" fill="#fff"/><path d="M204.194 137.128l-3.769-4.163s-1.015 4.629 3.769 4.163z" fill="#332938"/><path d="M185.861 159.844a6.375 6.375 0 01-.122 1.188h-15.622l1.26-9.37h10.191a5.603 5.603 0 00-.055.821c0 1.41.624 2.054 1.739 2.853.245.178.502.356.792.544 1.405.966 1.773 2.465 1.829 3.597-.012.122-.012.245-.012.367z" fill="#fff"/><path d="M183.241 155.328h-4.047a2.707 2.707 0 01-2.71-2.698v-.155h5.018c0 1.421.624 2.065 1.739 2.853z" fill="#CF837E"/><path d="M175.291 151.563s-.546 1.432-1.249 2.043c-1.003.866-3.044.866-3.044.866l.391-2.82 3.902-.089z" fill="#332938"/><path d="M185.851 159.478c.011.133.011.255.011.366h-15.589l.045-.366h15.533z" fill="#CF837E"/><path d="M172.246 159.589l.301.167c-.066.089 2.743-3.253 5.275-3.253h6.924a2.828 2.828 0 00-.368-.366h-6.445c-2.765 0-5.653 3.43-5.687 3.452z" fill="#CF837E"/><path d="M175.503 131.101c.658 4.141-.58 5.34-1.795 7.238-1.996 3.131-2.364 8.038-2.375 10.947 0 .1-.011.2-.011.3 0 1.265.066 2.076.066 2.076h10.181l.636-2.087.089-.3s2.052-7.261 5.631-18.551h-12.478c.023.122.034.255.056.377z" fill="#A35A5F"/><path d="M176.473 152.926h4.683c.904 0 1.829-.611 2.074-1.366.246-.755-.278-1.365-1.182-1.365h-4.683c-.903 0-1.829.61-2.074 1.365-.245.755.279 1.366 1.182 1.366z" fill="#fff"/><path d="M182.963 137.129l-2.32-4.163c-.011 0-2.631 4.629 2.32 4.163z" fill="#332938"/><path d="M207.06 130.722h-15.187l-1.26-17.952h15.198l1.249 17.952z" fill="#F7A274"/><path d="M190.379 130.722h-15.79l2.487-17.952h15.644l-2.341 17.952z" fill="#F7A274"/><path d="M189.775 117.487h5.944l-4.126 2.754-1.818-2.754z" fill="#332938"/><path d="M194.86 113.316h-.491v4.363h.491v-4.363zM190.578 126.525l1.127-7.127 1.393-.156-2.52 7.283z" fill="#332938"/><path d="M193.979 71.937l-3.512-.067 3.747 1.232-.235-1.165zM194.837 64.612a4.793 4.793 0 01-3.613 5.74 4.815 4.815 0 01-5.553-2.91 3.826 3.826 0 01-.212-.688 4.781 4.781 0 01-.122-1.11 4.806 4.806 0 013.735-4.63 4.807 4.807 0 013.646.622 4.76 4.76 0 012.119 2.976z" fill="#2C2334"/><path d="M193.622 71.972l-5.464.289-1.282-5.584c-.469-2.043.892-4.097 3.033-4.586 2.152-.488 4.27.767 4.739 2.81l1.014 4.396c.346 1.543-.546 2.62-2.04 2.675z" fill="#A35A5F"/><path d="M193.109 69.085c-.234.055-.301.566-.156 1.143.145.578.446.988.68.933.234-.056.301-.566.156-1.144-.145-.566-.457-.988-.68-.932z" fill="#2C2334"/><path d="M194.871 65.9l.468 2.02a1.338 1.338 0 01-.223.088c-.513.123-1.037-.255-1.171-.832-.133-.577.179-1.144.681-1.255.078-.022.167-.022.245-.022z" fill="#C75450"/><path d="M188.281 67.976a1.809 1.809 0 01-1.361 2.165 1.816 1.816 0 01-2.174-1.354 1.785 1.785 0 01.758-1.91c.179-.122.379-.21.602-.266a1.758 1.758 0 011.071.078c.535.21.959.677 1.104 1.287z" fill="#A35A5F"/><path d="M191.381 67.798a1.125 1.125 0 01-.859 1.354 1.13 1.13 0 01-1.36-.855 1.125 1.125 0 01.858-1.354 1.15 1.15 0 011.361.855z" fill="#C75450"/><path d="M191.815 69.196l2.509-.4s-.959 2.01-2.509.4z" fill="#fff"/><path d="M191.158 66.82a.365.365 0 01-.268.433.368.368 0 01-.435-.266.367.367 0 01.268-.433c.19-.045.39.077.435.266zM194.224 66.121a.366.366 0 01-.268.433.368.368 0 01-.435-.266.366.366 0 01.268-.433.362.362 0 01.435.266zM192.44 68.253l-.067-.278.714-.177v-.045l-.078-.366.278-.067.078.367a.289.289 0 01-.033.266.319.319 0 01-.245.144l-.647.156zM192.975 68.364c-.034.233.412.5 1.003.577.591.078 1.093-.044 1.126-.277.034-.233-.412-.5-1.003-.577-.591-.09-1.093.033-1.126.277z" fill="#2C2334"/><path d="M190.945 69.463c.112.211.692.145 1.305-.155s1.026-.722.914-.933c-.111-.21-.691-.144-1.304.156-.614.288-1.026.71-.915.932zM187.385 68.934l1.271-.29-1.285-5.572-1.272.29 1.286 5.572z" fill="#2C2334"/><path d="M187.422 65.51l.992-.222c.58-.133.937-.71.803-1.288l-.446-1.92-2.029.466.68 2.964zM189.061 63.314l2.297-.521c.58-.134.948-.71.814-1.288l-.045-.2-3.345.766.279 1.243z" fill="#2C2334"/><path d="M194.67 64.046c-.937-.066-2.543-.21-4.55.755-1.193.577-2.497 1.477-3.222 2.054-.212-.222-.435-.333-.803-.244a1.84 1.84 0 00-.602.266c-.011-.044-.023-.078-.034-.122a4.781 4.781 0 01-.122-1.11s1.962-2.72 4.527-3.641c1.427-.511 2.854-.356 2.854-.356a4.689 4.689 0 011.952 2.398z" fill="#F7A274"/><path d="M195.329 73.502s5.765 7.782-.368 9.88c-6.144 2.099-9.4-5.684-9.4-5.684l3.557-3.042 6.211-1.154zM197.313 72.68s3.725 4.519 4.483 9.76c.747 5.24 3.301 6.882 3.301 6.882l-.591-19.617-7.193 2.976zM183.888 79.053s1.472 6.617.803 10.658c-.669 4.041-5.865 6.029-5.865 6.029l1.416-13.767 3.646-2.92z" fill="#A35A5F"/><path d="M195.864 41.918c.022-3.93 2.498-5.917 7.36-5.917h.1c4.806.033 7.237 2.02 7.259 5.917v.044c0 1.932-.602 3.72-1.617 5.118a7.365 7.365 0 011.818 4.84c0 2.532-1.272 4.441-3.223 5.774h-8.452c-1.94-1.333-3.223-3.253-3.223-5.773 0-1.788.636-3.42 1.684-4.696-1.07-1.421-1.728-3.264-1.728-5.263v-.044h.022zm2.632.044c0 .456.044.9.133 1.333.246 1.165 1.461 1.865 2.61 1.52.658-.2 1.36-.3 2.074-.3h.022c.68 0 1.327.09 1.951.256a2.04 2.04 0 002.532-1.554c.078-.4.122-.822.122-1.255v-.044c-.011-2.01-.803-3.264-4.616-3.286h-.1c-3.903 0-4.706 1.254-4.717 3.286v.044h-.011z" fill="#332938"/><path d="M195.864 41.962c0 2.01.647 3.841 1.728 5.262a7.374 7.374 0 00-1.684 4.697c0 2.53 1.272 4.44 3.223 5.772h8.452c1.94-1.332 3.223-3.252 3.223-5.773a7.344 7.344 0 00-1.818-4.84c1.004-1.399 1.617-3.186 1.617-5.118v-.044h-2.643v.044c0 .433-.044.844-.122 1.255-.223 1.143-1.394 1.865-2.532 1.554a7.519 7.519 0 00-1.951-.255h-.022c-.725 0-1.428.1-2.074.3-1.16.343-2.364-.345-2.61-1.522a6.599 6.599 0 01-.133-1.332v-.044h-2.643v.044h-.011z" fill="#7875D3"/><path d="M208.498 51.61a.599.599 0 00.602-.6c0-2.454-2.007-4.452-4.472-4.452a.599.599 0 100 1.2 3.264 3.264 0 013.267 3.252c0 .333.268.6.603.6z" fill="#fff"/><path d="M172.057 99.58c-2.453-1.598-3.144-4.884-1.527-7.326l5.854-8.893 4.181 2.731a3.86 3.86 0 011.115 5.362l-4.672 7.106a3.596 3.596 0 01-4.951 1.02z" fill="#A35A5F"/><path d="M172.693 94.153s7.672 3.786-1.048 10.08c-7.426 5.362-13.28 2.976-13.28 2.976l-1.182-2.521 15.51-10.535z" fill="#A35A5F"/><path d="M160.204 102.633l2.264 2.398-.558-3.564-1.706 1.166zM178.826 95.74l2.275-4.319-2.966 11.058.691-6.74z" fill="#332938"/><path d="M160.416 107.583l.993-1.154a2.105 2.105 0 00-.234-2.976l-4.472-3.797-2.375 2.765c-.78.91-.669 2.276.245 3.042l2.788 2.364a2.177 2.177 0 003.055-.244z" fill="#A35A5F"/></g><path d="M60.429 65.046h-.483v112.282h.483V65.046z" fill="#59221D"/><path d="M60.187 94.237a.24.24 0 01-.241-.242c0-3.282 2.095-6.138 5.212-7.106 5.01-1.55 9.237-4.212 12.566-7.91 3.012-3.34 4.517-6.71 5.154-8.424a.24.24 0 01.31-.145.24.24 0 01.144.31c-.647 1.743-2.19 5.18-5.25 8.578-3.388 3.757-7.693 6.468-12.78 8.046a6.926 6.926 0 00-4.873 6.642c0 .145-.107.251-.242.251zM60.448 80.857h-.483c0-1.695-1.322-3.224-3.069-3.534-6.746-1.23-7.451-4.928-7.48-5.083l.473-.087c0 .01.164.89 1.11 1.897 1.592 1.704 4.13 2.46 5.984 2.798 1.969.349 3.465 2.082 3.465 4.009zM59.976 76.122a4.174 4.174 0 012.857-3.97l.994-.329a4.193 4.193 0 002.876-3.998v-4.028h.482v4.038a4.673 4.673 0 01-3.214 4.453l-.994.33a3.682 3.682 0 00-2.528 3.504h-.473z" fill="#59221D"/><path d="M80.543 76.112l-.405-.26a3.58 3.58 0 013.011-1.637h4.015c.714 0 1.39-.28 1.892-.784a2.678 2.678 0 00.782-1.898h.482a3.18 3.18 0 01-.917 2.236c-.589.6-1.38.93-2.23.93H83.16a3.076 3.076 0 00-2.616 1.413z" fill="#59221D"/><path d="M27.623 79.007c.077.02.164.049.241.078-.02.349-.077.697-.174 1.026-.704 2.45-3.281 3.863-5.752 3.156-.087-.019-.164-.048-.241-.077.02-.349.077-.697.174-1.026.704-2.45 3.281-3.863 5.752-3.157zM82.261 41.752a4.732 4.732 0 01.02-1.046c.337-2.527 2.682-4.299 5.24-3.96.087.01.164.029.251.039.029.348.029.697-.02 1.045-.337 2.527-2.682 4.3-5.24 3.96a1.96 1.96 0 01-.251-.038z" fill="#8291C5"/><path d="M103.051 57.358c0 7.91-6.4 14.32-14.285 14.32-7.094 0-13.116-5.228-14.13-12.267-3.696 3.524-8.812 5.693-14.458 5.693-2.056 0-4.102-.29-6.07-.871-.667 3.146-2.279 6.002-4.556 8.316 1.322 5.432-1.998 10.912-7.413 12.248-5.154 1.259-10.404-1.694-12.016-6.758-8.658-1.85-15.095-8.781-15.095-17.05 0-9.682 8.821-17.534 19.708-17.534 1.709 0 3.407.194 5.077.59.86-9.981 9.652-17.833 20.365-17.833 11.264 0 20.404 8.675 20.442 19.383 6.477-4.512 15.376-2.914 19.873 3.582a14.347 14.347 0 012.558 8.181z" fill="#8291C5"/><path d="M24.534 66.45c.586 0 1.062-.477 1.062-1.065s-.476-1.065-1.062-1.065c-.586 0-1.062.477-1.062 1.065s.476 1.065 1.062 1.065zM26.484 54.996c.586 0 1.061-.477 1.061-1.065s-.475-1.065-1.061-1.065c-.587 0-1.062.477-1.062 1.065s.475 1.065 1.062 1.065zM29.94 57.136c.586 0 1.061-.477 1.061-1.065s-.475-1.065-1.062-1.065c-.586 0-1.061.477-1.061 1.065s.475 1.065 1.061 1.065zM41.244 54.285c.542-.225.8-.848.575-1.391a1.06 1.06 0 00-1.387-.576 1.066 1.066 0 00-.575 1.391 1.06 1.06 0 001.387.576zM37.255 69.655c.587 0 1.062-.477 1.062-1.065 0-.589-.475-1.065-1.062-1.065-.586 0-1.061.476-1.061 1.065 0 .588.475 1.065 1.061 1.065zM52.041 58.81c.587 0 1.062-.476 1.062-1.064 0-.588-.476-1.065-1.062-1.065-.586 0-1.061.477-1.061 1.065s.475 1.065 1.061 1.065zM49.484 62.664c.586 0 1.061-.477 1.061-1.065s-.475-1.065-1.061-1.065c-.587 0-1.062.477-1.062 1.065s.475 1.065 1.062 1.065zM52.157 43.775c.587 0 1.062-.477 1.062-1.065s-.476-1.065-1.062-1.065c-.586 0-1.061.477-1.061 1.065s.475 1.065 1.061 1.065zM55.786 41.703c.587 0 1.062-.477 1.062-1.065s-.475-1.065-1.062-1.065c-.586 0-1.061.477-1.061 1.065s.475 1.065 1.061 1.065zM49.523 38.634c.586 0 1.061-.477 1.061-1.065 0-.589-.475-1.065-1.061-1.065-.587 0-1.062.477-1.062 1.065s.475 1.065 1.062 1.065zM63.006 51.21c.586 0 1.061-.476 1.061-1.064 0-.589-.475-1.065-1.061-1.065-.587 0-1.062.476-1.062 1.065 0 .588.475 1.065 1.062 1.065zM63.315 68.474c.618 0 1.12-.503 1.12-1.124 0-.62-.502-1.123-1.12-1.123-.618 0-1.12.503-1.12 1.123s.502 1.124 1.12 1.124zM36.193 40.686c.618 0 1.12-.503 1.12-1.123s-.502-1.123-1.12-1.123c-.618 0-1.12.503-1.12 1.123s.502 1.123 1.12 1.123zM70.418 40.134c.587 0 1.062-.476 1.062-1.065 0-.588-.475-1.065-1.062-1.065-.586 0-1.061.477-1.061 1.065 0 .589.475 1.065 1.061 1.065zM73.102 44.52c.586 0 1.061-.476 1.061-1.065 0-.588-.475-1.065-1.061-1.065-.587 0-1.062.477-1.062 1.065 0 .589.475 1.065 1.062 1.065zM69.357 59.847c.586 0 1.061-.477 1.061-1.065s-.475-1.065-1.061-1.065c-.587 0-1.062.477-1.062 1.065s.475 1.065 1.062 1.065zM80.031 54.367c.587 0 1.062-.477 1.062-1.065s-.475-1.065-1.062-1.065c-.586 0-1.062.477-1.062 1.065s.476 1.065 1.062 1.065zM82.155 57.136c.587 0 1.062-.477 1.062-1.065s-.475-1.065-1.062-1.065c-.586 0-1.061.477-1.061 1.065s.475 1.065 1.061 1.065zM92.714 52.276c.586 0 1.062-.477 1.062-1.066 0-.588-.476-1.065-1.062-1.065-.586 0-1.062.477-1.062 1.066 0 .588.476 1.065 1.062 1.065zM88.901 68.58c.587 0 1.062-.477 1.062-1.065s-.475-1.065-1.061-1.065c-.587 0-1.062.477-1.062 1.065s.475 1.065 1.061 1.065zM42.959 80.44c.586 0 1.062-.477 1.062-1.065s-.476-1.065-1.062-1.065c-.587 0-1.062.477-1.062 1.065s.476 1.065 1.062 1.065zM22.276 78.823c.618 0 1.12-.502 1.12-1.123 0-.62-.502-1.123-1.12-1.123-.619 0-1.12.503-1.12 1.123s.501 1.123 1.12 1.123z" fill="#fff"/><path d="M76.895 178.034H0c0-3.514 4.198-7.542 11.196-6.448a7.026 7.026 0 01-.203-1.733c0-4.521 4.102-8.181 9.15-8.181.656 0 1.322.068 1.969.193a16.633 16.633 0 011.264-3.233c4.228-8.172 14.449-11.454 22.827-7.33 6.987 3.438 10.481 10.941 9.005 18.077a15.407 15.407 0 0114.052-.223c3.822 1.888 6.477 5.16 7.635 8.878z" fill="#98C8DB"/><defs><clipPath id="clip0_134_49"><path fill="#fff" transform="translate(232.431 61.154)" d="M0 0h55.423v109.874H0z"/></clipPath><clipPath id="clip1_134_49"><path fill="#fff" transform="translate(61.938 48.315)" d="M0 0h83.287v113.662H0z"/></clipPath><clipPath id="clip2_134_49"><path fill="#fff" transform="translate(153.814 36)" d="M0 0h60.938v125.029H0z"/></clipPath></defs></svg>