<svg width="392" height="240" viewBox="0 0 392 240" fill="none" xmlns="http://www.w3.org/2000/svg">
<path d="M28.0392 108.128C50.3576 54.473 106.358 81.3007 167.156 60.1638C227.954 39.0268 341.246 77.2359 373.569 108.128C405.892 139.021 382.848 198.254 346.653 214.626C310.459 230.999 66.5191 243.893 23.4216 214.626C-19.676 185.36 5.7208 161.784 28.0392 108.128Z" fill="#E1EFFF"/>
<path fill-rule="evenodd" clip-rule="evenodd" d="M79.9039 0C60.627 0 45 15.627 45 34.9039V238.906H255.878V34.9039C255.878 15.627 240.251 0 220.974 0H79.9039ZM53.008 34.7009C53.008 19.9585 64.959 8.00749 79.7014 8.00749H109.064V14.6808C109.064 19.1035 112.649 22.6888 117.072 22.6888H183.805C188.228 22.6888 191.813 19.1035 191.813 14.6808V8.00749H219.842C234.584 8.00749 246.535 19.9585 246.535 34.7009V238.905H53.008V34.7009Z" fill="#162344"/>
<path fill-rule="evenodd" clip-rule="evenodd" d="M80.4054 7.66785C65.6707 7.66785 53.726 19.6365 53.726 34.4006V238.906H247.152V34.4006C247.152 19.6365 235.207 7.66785 220.472 7.66785H192.459V14.351C192.459 18.7803 188.875 22.3708 184.455 22.3708H117.757C113.336 22.3708 109.753 18.7803 109.753 14.351V7.66785H80.4054Z" fill="white"/>
<mask id="mask0_2_4" style="mask-type:alpha" maskUnits="userSpaceOnUse" x="53" y="7" width="195" height="232">
<path fill-rule="evenodd" clip-rule="evenodd" d="M80.4052 7.66785C65.6705 7.66785 53.7258 19.6365 53.7258 34.4006V238.906H247.151V34.4006C247.151 19.6365 235.207 7.66785 220.472 7.66785H192.459V14.351C192.459 18.7803 188.875 22.3708 184.455 22.3708H117.756C113.336 22.3708 109.753 18.7803 109.753 14.351V7.66785H80.4052Z" fill="white"/>
</mask>
<g mask="url(#mask0_2_4)">
<path d="M231 41.0688L228.087 38.156" stroke="#212121" stroke-width="1.5" stroke-miterlimit="10" stroke-linecap="round" stroke-linejoin="round"/>
<path d="M223.826 39.7216C227.043 39.7216 229.651 37.1133 229.651 33.8959C229.651 30.6784 227.043 28.0702 223.826 28.0702C220.608 28.0702 218 30.6784 218 33.8959C218 37.1133 220.608 39.7216 223.826 39.7216Z" stroke="#212121" stroke-width="1.5" stroke-miterlimit="10" stroke-linecap="round" stroke-linejoin="round"/>
<rect x="65.3604" y="205.456" width="49.0408" height="49.0408" rx="2.07991" fill="#F0F0F0"/>
<rect x="118.336" y="205.457" width="49.0408" height="49.0408" rx="2.07991" fill="#F0F0F0"/>
<rect x="171.312" y="205.457" width="49.0408" height="49.0408" rx="2.07991" fill="#F0F0F0"/>
<rect x="224.288" y="205.457" width="49.0408" height="49.0408" rx="2.07991" fill="#F0F0F0"/>
<rect x="66.8147" y="67.2953" width="37.8125" height="8.72597" rx="1.03996" fill="#F5F5F5"/>
<rect x="66.8147" y="83.2935" width="165.793" height="90.1683" rx="4.15983" fill="#D0E5F8"/>
<path d="M236.971 87.4533C236.971 85.1559 238.833 83.2935 241.131 83.2935H250.474C251.049 83.2935 251.514 83.7591 251.514 84.3334V172.422C251.514 172.996 251.049 173.462 250.474 173.462H241.131C238.833 173.462 236.971 171.599 236.971 169.302V87.4533Z" fill="#9AE0F5"/>
<rect x="66.8147" y="188.004" width="37.8125" height="8.72597" rx="1" fill="#F5F5F5"/>
</g>
<path d="M76.4219 60.0697H74.3535L73.1934 55.5697C73.1504 55.4096 73.0762 55.0795 72.9707 54.5795C72.8691 54.0756 72.8105 53.7377 72.7949 53.5658C72.7715 53.7768 72.7129 54.1166 72.6191 54.5854C72.5254 55.0502 72.4531 55.3822 72.4023 55.5815L71.248 60.0697H69.1855L67 51.5033H68.7871L69.8828 56.1791C70.0742 57.0424 70.2129 57.7904 70.2988 58.4232C70.3223 58.2006 70.375 57.8568 70.457 57.392C70.543 56.9232 70.623 56.56 70.6973 56.3022L71.9453 51.5033H73.6621L74.9102 56.3022C74.9648 56.517 75.0332 56.8451 75.1152 57.2865C75.1973 57.7279 75.2598 58.1068 75.3027 58.4232C75.3418 58.1186 75.4043 57.7397 75.4902 57.2865C75.5762 56.8295 75.6543 56.4604 75.7246 56.1791L76.8145 51.5033H78.6016L76.4219 60.0697ZM80.7229 56.7826C80.7229 57.4311 80.8284 57.9213 81.0393 58.2533C81.2541 58.5854 81.6018 58.7514 82.0823 58.7514C82.5588 58.7514 82.9006 58.5873 83.1077 58.2592C83.3186 57.9272 83.4241 57.435 83.4241 56.7826C83.4241 56.1342 83.3186 55.6479 83.1077 55.3236C82.8967 54.9994 82.551 54.8373 82.0705 54.8373C81.594 54.8373 81.2502 54.9994 81.0393 55.3236C80.8284 55.644 80.7229 56.1303 80.7229 56.7826ZM85.2522 56.7826C85.2522 57.849 84.9709 58.683 84.4084 59.2846C83.8459 59.8861 83.0627 60.1869 82.0588 60.1869C81.4299 60.1869 80.8752 60.0502 80.3948 59.7768C79.9143 59.4994 79.5452 59.1029 79.2873 58.5873C79.0295 58.0717 78.9006 57.4701 78.9006 56.7826C78.9006 55.7123 79.1799 54.8803 79.7385 54.2865C80.2971 53.6928 81.0823 53.3959 82.094 53.3959C82.7229 53.3959 83.2776 53.5326 83.758 53.8061C84.2385 54.0795 84.6077 54.4721 84.8655 54.9838C85.1233 55.4955 85.2522 56.0951 85.2522 56.7826ZM90.145 53.3959C90.3872 53.3959 90.5884 53.4135 90.7485 53.4486L90.6138 55.1244C90.4692 55.0854 90.2934 55.0658 90.0864 55.0658C89.5161 55.0658 89.0708 55.2123 88.7505 55.5053C88.4341 55.7982 88.2759 56.2084 88.2759 56.7357V60.0697H86.4888V53.519H87.8423L88.1059 54.6205H88.1938C88.397 54.2533 88.6704 53.9584 89.0141 53.7357C89.3618 53.5092 89.7388 53.3959 90.145 53.3959ZM93.4148 56.5072L94.1941 55.5111L96.028 53.519H98.0437L95.4421 56.3607L98.2019 60.0697H96.1394L94.2527 57.4154L93.4851 58.0307V60.0697H91.698V50.9525H93.4851V55.019L93.3913 56.5072H93.4148ZM100.323 56.7826C100.323 57.4311 100.429 57.9213 100.64 58.2533C100.854 58.5854 101.202 58.7514 101.683 58.7514C102.159 58.7514 102.501 58.5873 102.708 58.2592C102.919 57.9272 103.024 57.435 103.024 56.7826C103.024 56.1342 102.919 55.6479 102.708 55.3236C102.497 54.9994 102.151 54.8373 101.671 54.8373C101.194 54.8373 100.851 54.9994 100.64 55.3236C100.429 55.644 100.323 56.1303 100.323 56.7826ZM104.853 56.7826C104.853 57.849 104.571 58.683 104.009 59.2846C103.446 59.8861 102.663 60.1869 101.659 60.1869C101.03 60.1869 100.476 60.0502 99.9951 59.7768C99.5146 59.4994 99.1455 59.1029 98.8877 58.5873C98.6298 58.0717 98.5009 57.4701 98.5009 56.7826C98.5009 55.7123 98.7802 54.8803 99.3388 54.2865C99.8974 53.6928 100.683 53.3959 101.694 53.3959C102.323 53.3959 102.878 53.5326 103.358 53.8061C103.839 54.0795 104.208 54.4721 104.466 54.9838C104.724 55.4955 104.853 56.0951 104.853 56.7826ZM110.73 60.0697L110.489 59.2318H110.396C110.204 59.5365 109.933 59.7729 109.581 59.9408C109.23 60.1049 108.829 60.1869 108.38 60.1869C107.611 60.1869 107.03 59.9818 106.64 59.5717C106.249 59.1576 106.054 58.5639 106.054 57.7904V53.519H107.841V57.3451C107.841 57.8178 107.925 58.1732 108.093 58.4115C108.261 58.6459 108.529 58.7631 108.896 58.7631C109.396 58.7631 109.757 58.5971 109.98 58.265C110.202 57.9291 110.314 57.3744 110.314 56.601V53.519H112.101V60.0697H110.73ZM116.496 58.7631C116.808 58.7631 117.183 58.6947 117.621 58.558V59.8881C117.175 60.0873 116.628 60.1869 115.98 60.1869C115.265 60.1869 114.744 60.0072 114.415 59.6479C114.091 59.2846 113.929 58.7416 113.929 58.019V54.8607H113.074V54.1049L114.058 53.5072L114.574 52.1244H115.716V53.519H117.55V54.8607H115.716V58.019C115.716 58.2729 115.787 58.4604 115.927 58.5815C116.072 58.7025 116.261 58.7631 116.496 58.7631ZM125.367 52.892C124.684 52.892 124.154 53.1498 123.779 53.6654C123.404 54.1772 123.217 54.892 123.217 55.81C123.217 57.7201 123.934 58.6752 125.367 58.6752C125.969 58.6752 126.697 58.5248 127.553 58.224V59.7475C126.85 60.0404 126.064 60.1869 125.197 60.1869C123.951 60.1869 122.998 59.81 122.338 59.0561C121.678 58.2982 121.348 57.2123 121.348 55.7982C121.348 54.9076 121.51 54.1283 121.834 53.4604C122.158 52.7885 122.623 52.2748 123.228 51.9193C123.838 51.56 124.551 51.3803 125.367 51.3803C126.199 51.3803 127.035 51.5815 127.875 51.9838L127.289 53.4604C126.969 53.308 126.646 53.1752 126.322 53.0619C125.998 52.9486 125.68 52.892 125.367 52.892ZM130.424 56.7826C130.424 57.4311 130.529 57.9213 130.74 58.2533C130.955 58.5854 131.303 58.7514 131.783 58.7514C132.26 58.7514 132.602 58.5873 132.809 58.2592C133.02 57.9272 133.125 57.435 133.125 56.7826C133.125 56.1342 133.02 55.6479 132.809 55.3236C132.598 54.9994 132.252 54.8373 131.772 54.8373C131.295 54.8373 130.951 54.9994 130.74 55.3236C130.529 55.644 130.424 56.1303 130.424 56.7826ZM134.953 56.7826C134.953 57.849 134.672 58.683 134.11 59.2846C133.547 59.8861 132.764 60.1869 131.76 60.1869C131.131 60.1869 130.576 60.0502 130.096 59.7768C129.615 59.4994 129.246 59.1029 128.988 58.5873C128.731 58.0717 128.602 57.4701 128.602 56.7826C128.602 55.7123 128.881 54.8803 129.44 54.2865C129.998 53.6928 130.783 53.3959 131.795 53.3959C132.424 53.3959 132.979 53.5326 133.459 53.8061C133.94 54.0795 134.309 54.4721 134.567 54.9838C134.824 55.4955 134.953 56.0951 134.953 56.7826ZM137.977 60.0697H136.19V50.9525H137.977V60.0697ZM141.405 60.0697H139.618V50.9525H141.405V60.0697ZM145.759 54.6674C145.38 54.6674 145.083 54.7885 144.868 55.0307C144.653 55.269 144.53 55.6088 144.499 56.0502H147.007C146.999 55.6088 146.884 55.269 146.661 55.0307C146.438 54.7885 146.138 54.6674 145.759 54.6674ZM146.011 60.1869C144.956 60.1869 144.132 59.8959 143.538 59.3139C142.944 58.7318 142.647 57.9076 142.647 56.8412C142.647 55.7436 142.921 54.8959 143.468 54.2982C144.018 53.6967 144.778 53.3959 145.747 53.3959C146.673 53.3959 147.393 53.6596 147.909 54.1869C148.425 54.7143 148.683 55.4428 148.683 56.3725V57.2397H144.458C144.477 57.7475 144.628 58.144 144.909 58.4291C145.19 58.7143 145.585 58.8568 146.093 58.8568C146.487 58.8568 146.86 58.8158 147.212 58.7338C147.563 58.6518 147.931 58.5209 148.313 58.3412V59.724C148.001 59.8803 147.667 59.9955 147.311 60.0697C146.956 60.1479 146.522 60.1869 146.011 60.1869ZM152.556 60.1869C150.517 60.1869 149.497 59.0678 149.497 56.8295C149.497 55.7162 149.775 54.8666 150.329 54.2807C150.884 53.6908 151.679 53.3959 152.714 53.3959C153.472 53.3959 154.151 53.5443 154.753 53.8412L154.226 55.224C153.944 55.1107 153.683 55.019 153.441 54.9486C153.198 54.8744 152.956 54.8373 152.714 54.8373C151.784 54.8373 151.319 55.4975 151.319 56.8178C151.319 58.099 151.784 58.7397 152.714 58.7397C153.058 58.7397 153.376 58.6947 153.669 58.6049C153.962 58.5111 154.255 58.3666 154.548 58.1713V59.7006C154.259 59.8842 153.966 60.0111 153.669 60.0815C153.376 60.1518 153.005 60.1869 152.556 60.1869ZM158.591 58.7631C158.904 58.7631 159.279 58.6947 159.716 58.558V59.8881C159.271 60.0873 158.724 60.1869 158.076 60.1869C157.361 60.1869 156.839 60.0072 156.511 59.6479C156.187 59.2846 156.025 58.7416 156.025 58.019V54.8607H155.169V54.1049L156.154 53.5072L156.669 52.1244H157.812V53.519H159.646V54.8607H157.812V58.019C157.812 58.2729 157.882 58.4604 158.023 58.5815C158.167 58.7025 158.357 58.7631 158.591 58.7631ZM160.73 51.8256C160.73 51.2436 161.054 50.9525 161.703 50.9525C162.351 50.9525 162.675 51.2436 162.675 51.8256C162.675 52.1029 162.593 52.3197 162.429 52.476C162.269 52.6283 162.027 52.7045 161.703 52.7045C161.054 52.7045 160.73 52.4115 160.73 51.8256ZM162.593 60.0697H160.806V53.519H162.593V60.0697ZM165.658 56.7826C165.658 57.4311 165.764 57.9213 165.974 58.2533C166.189 58.5854 166.537 58.7514 167.017 58.7514C167.494 58.7514 167.836 58.5873 168.043 58.2592C168.254 57.9272 168.359 57.435 168.359 56.7826C168.359 56.1342 168.254 55.6479 168.043 55.3236C167.832 54.9994 167.486 54.8373 167.006 54.8373C166.529 54.8373 166.185 54.9994 165.974 55.3236C165.764 55.644 165.658 56.1303 165.658 56.7826ZM170.187 56.7826C170.187 57.849 169.906 58.683 169.344 59.2846C168.781 59.8861 167.998 60.1869 166.994 60.1869C166.365 60.1869 165.81 60.0502 165.33 59.7768C164.849 59.4994 164.48 59.1029 164.223 58.5873C163.965 58.0717 163.836 57.4701 163.836 56.7826C163.836 55.7123 164.115 54.8803 164.674 54.2865C165.232 53.6928 166.017 53.3959 167.029 53.3959C167.658 53.3959 168.213 53.5326 168.693 53.8061C169.174 54.0795 169.543 54.4721 169.801 54.9838C170.058 55.4955 170.187 56.0951 170.187 56.7826ZM177.471 60.0697H175.684V56.2436C175.684 55.7709 175.6 55.4174 175.432 55.183C175.264 54.9447 174.996 54.8256 174.629 54.8256C174.129 54.8256 173.768 54.9936 173.545 55.3295C173.322 55.6615 173.211 56.2143 173.211 56.9877V60.0697H171.424V53.519H172.789L173.029 54.3568H173.129C173.328 54.0404 173.602 53.8022 173.949 53.642C174.301 53.4779 174.699 53.3959 175.145 53.3959C175.906 53.3959 176.484 53.6029 176.879 54.017C177.274 54.4272 177.471 55.0209 177.471 55.7982V60.0697Z" fill="#151619"/>
<circle cx="87.5" cy="153.57" r="10" fill="white" fill-opacity="0.2" stroke="white"/>
<path d="M92.25 153.137C92.5833 153.329 92.5833 153.81 92.25 154.003L85.5 157.9C85.1667 158.092 84.75 157.852 84.75 157.467L84.75 149.673C84.75 149.288 85.1667 149.047 85.5 149.24L92.25 153.137Z" fill="white"/>
<path d="M105.547 131.007V132.271L163.551 166.12V164.856L105.547 131.007Z" fill="#76B9DE"/>
<path d="M163.551 164.856V166.12L188.679 151.588V150.234L163.551 164.856Z" fill="#76B9DE"/>
<path d="M188.679 150.234L163.551 164.856L105.547 131.007L118.967 123.245L122.39 121.259L130.676 116.475L132.477 117.558L133.378 118.1L188.679 150.234Z" fill="#C6E4FF"/>
<path d="M166.973 157.455C165.352 155.92 163.37 154.837 161.209 154.386C155.895 152.942 146.708 147.977 138.332 143.554L124.551 133.625C120.408 134.889 116.535 134.798 113.023 133.083C112.572 132.813 112.302 132.181 112.572 131.73C112.662 131.639 112.753 131.549 112.843 131.459C114.464 130.285 116.175 129.292 118.066 128.661C119.057 128.3 119.508 127.216 119.147 126.223C119.147 126.223 119.147 126.133 119.057 126.133C118.517 125.321 118.427 124.238 118.967 123.335L122.39 121.349C123.11 121.169 123.831 121.259 124.551 121.439L127.884 122.252L132.387 117.558L132.838 117.107L133.288 118.1L137.431 126.946L154.364 138.048L175.259 152.49C175.62 154.747 169.315 158.177 166.973 157.455Z" fill="#B2DAFF"/>
<path d="M175.259 151.858C175.259 152.039 175.169 152.129 175.079 152.31C174.899 152.671 174.629 153.032 174.269 153.212C173.188 153.573 172.017 153.483 171.026 152.942L168.144 150.865L166.523 150.504L165.802 150.324C165.172 149.782 164.721 149.06 164.631 148.158C164.631 147.345 164.811 146.443 165.172 145.63C165.262 145.359 165.352 145.179 165.532 144.908H166.703H169.135C169.495 146.172 170.215 147.345 171.116 148.248C173.098 149.602 174.629 150.775 175.259 151.858Z" fill="#96CAF8"/>
<path d="M173.638 154.115C172.107 154.386 170.576 153.664 169.045 152.219C168.324 151.678 167.513 151.226 166.613 151.046L166.343 150.956C165.532 150.685 164.902 150.143 164.631 149.331C164.541 148.88 164.541 148.428 164.631 148.067C164.811 148.519 165.082 148.97 165.532 149.241C165.802 149.511 166.162 149.692 166.523 149.873C166.973 150.053 167.423 150.234 167.784 150.324C168.955 150.595 169.405 151.407 170.306 152.129C171.116 152.761 172.107 153.122 173.188 153.212C173.908 153.212 174.629 152.851 175.169 152.31C175.259 152.219 175.349 152.039 175.349 151.858C175.62 152.851 175.079 153.844 173.638 154.115Z" fill="#4A6097"/>
<path d="M142.925 114.128L141.034 112.594L137.251 109.525L140.673 103.206L134.549 103.477L133.558 100.498C136.891 99.3249 140.493 98.8736 144.006 99.2346C144.546 99.2346 144.997 99.5957 145.087 100.137C146.438 105.282 142.565 109.434 142.925 114.128Z" fill="white"/>
<path opacity="0.1" d="M142.925 114.128L141.034 112.594C143.195 110.066 144.997 102.394 145.087 100.228C146.438 105.282 142.565 109.434 142.925 114.128Z" fill="#1D1D1B"/>
<path d="M147.609 129.202L145.537 130.737L135.449 137.867L135.269 135.701C135.089 134.167 134.549 132.813 133.648 131.549C131.306 128.3 129.235 124.779 127.614 121.078C127.343 120.447 127.073 119.905 126.803 119.273C126.263 118.1 125.722 116.836 125.272 115.572C125.812 114.67 126.533 113.857 127.433 113.225C128.334 112.594 129.325 112.052 130.406 111.691L137.791 108.712C139.683 109.254 140.493 110.969 141.844 112.323C144.816 115.211 146.258 114.489 146.978 117.468C147.068 117.919 147.158 118.371 147.158 118.822C147.158 119.093 147.158 119.273 147.068 119.544C146.798 120.717 145.897 121.71 144.726 122.162C144.997 123.877 145.447 125.682 146.077 127.307C146.258 128.029 146.798 128.751 147.609 129.202Z" fill="#96CAF8"/>
<path d="M147.068 118.822C147.068 118.822 147.068 119.093 146.978 119.544C146.708 120.717 145.807 121.71 144.636 122.071C144.907 123.786 145.357 125.592 145.987 127.216C145.807 128.48 145.627 129.653 145.537 130.646L135.449 137.777L135.269 135.611C135.089 134.076 134.549 132.722 133.648 131.459C131.306 128.209 129.235 124.689 127.614 120.988C124.731 117.739 117.076 116.926 115.905 113.948C115.905 113.677 115.905 113.406 115.995 113.135C116.625 114.399 120.318 115.843 124.371 117.468C125.452 117.919 128.694 119.815 129.865 119.995C130.946 120.266 132.027 120.266 133.108 120.176C134.729 126.314 142.565 125.231 142.475 120.086C144.456 121.62 146.077 120.717 147.068 118.822Z" fill="#81BCF0"/>
<path d="M140.583 134.437C140.493 129.744 161.479 115.843 163.641 117.919C167.874 121.981 167.423 133.896 169.045 144.818C169.045 146.713 165.892 147.255 165.172 145.72C164.811 141.659 162.74 137.867 160.218 133.715L159.948 129.022C157.516 135.34 152.382 142.29 145.987 142.742C140.944 142.2 140.944 138.499 140.583 134.437Z" fill="#526DA3"/>
<path d="M170.035 155.198C170.035 155.379 169.945 155.469 169.855 155.649C169.765 156.01 169.405 156.372 169.045 156.552C167.964 156.913 166.793 156.823 165.802 156.281L162.92 154.205L161.299 153.844L160.578 153.573C159.948 153.032 159.497 152.31 159.407 151.407C159.407 150.595 159.588 149.692 159.948 148.97C160.038 148.699 160.128 148.519 160.308 148.248H161.479H163.911C164.271 149.511 164.992 150.685 165.892 151.588C167.964 152.942 169.495 154.115 170.035 155.198Z" fill="#96CAF8"/>
<path d="M168.504 157.455C166.973 157.725 165.442 157.003 163.911 155.559C163.19 155.018 162.38 154.657 161.479 154.476L161.209 154.386C160.398 154.115 159.768 153.573 159.497 152.761C159.407 152.31 159.407 151.858 159.497 151.497C159.678 152.039 159.948 152.4 160.398 152.761C160.668 153.032 161.029 153.212 161.389 153.393C161.839 153.573 162.29 153.754 162.74 153.844C163.911 154.115 164.361 154.927 165.262 155.649C166.072 156.281 167.063 156.642 168.144 156.733C168.864 156.733 169.585 156.372 170.125 155.83C170.215 155.74 170.306 155.559 170.306 155.379C170.486 156.191 169.945 157.184 168.504 157.455Z" fill="#4A6097"/>
<path d="M163.911 148.248C163.911 149.421 162.74 150.053 161.659 150.053C161.029 150.053 160.398 149.782 160.038 149.241V148.97C159.678 145.089 158.957 143.283 156.886 139.131C154.724 134.799 154.814 132.361 154.814 132.361C152.382 138.68 149.68 144.998 143.285 144.908C138.242 144.818 135.9 141.839 135.54 137.867C135.63 137.055 135.99 136.243 136.53 135.521C140.763 129.744 156.705 119.544 158.597 121.349C162.74 125.411 162.29 137.326 163.911 148.248Z" fill="#4A6097"/>
<path d="M161.389 153.754C161.389 154.025 161.479 154.205 161.479 154.386L161.209 154.295C160.398 154.025 159.768 153.483 159.497 152.671C159.407 152.219 159.407 151.768 159.497 151.407C159.497 150.595 159.678 149.692 160.038 148.97C159.678 145.089 158.957 143.283 156.886 139.131C154.724 134.799 154.814 132.361 154.814 132.361C152.382 138.68 149.68 144.998 143.285 144.908C138.242 144.818 135.9 141.839 135.54 137.867C135.63 137.055 135.99 136.243 136.53 135.521C136.62 139.131 138.782 142.471 142.565 142.561C146.618 142.742 150.671 135.16 155.174 129.022C155.444 136.784 160.668 139.944 161.569 148.248C161.659 148.789 161.659 149.421 161.659 150.053V150.143C161.389 151.136 161.299 152.219 161.389 153.303C161.299 153.483 161.389 153.573 161.389 153.754Z" fill="#1F3468"/>
<path d="M129.865 120.086C129.775 120.988 128.965 121.62 128.064 121.53H127.974C127.884 121.439 127.794 121.259 127.704 121.169C124.822 117.919 117.166 117.107 115.995 114.128C115.995 113.857 115.995 113.587 116.085 113.316C116.625 110.157 121.579 106.726 126.173 103.658L127.974 105.553L122.39 112.052L127.343 113.316C129.055 113.406 130.496 117.739 129.865 120.086Z" fill="white"/>
<path d="M138.332 106.365C137.071 104.109 138.602 101.401 136.53 98.4222C136.35 98.2417 136.17 98.0612 135.99 97.9709C132.117 96.3462 132.747 106.546 138.332 106.365Z" fill="#4A6097"/>
<path d="M128.694 102.935L130.136 111.781C130.316 112.323 130.676 112.774 131.216 112.864C132.657 113.316 134.369 113.135 135.63 112.233C136.08 111.962 136.35 111.42 136.35 110.879L134.999 102.123L128.694 102.935Z" fill="white"/>
<path opacity="0.1" d="M136.17 109.615C136.17 109.615 136.35 110.608 136.35 110.698C136.35 111.42 132.207 112.864 130.856 107.268C132.928 109.705 134.189 109.795 136.17 109.615Z" fill="#1D1D1B"/>
<path d="M128.965 105.373C129.415 106.185 129.865 106.997 130.406 107.719C132.117 110.427 135.449 110.608 136.71 109.795C138.512 108.622 136.801 102.304 135.81 99.8665C135.72 99.5054 135.449 99.1443 135.269 98.7833C134.549 97.7904 133.378 97.3391 132.207 97.6099C130.946 97.8807 129.775 98.4222 128.875 99.3249C128.604 99.5054 128.334 99.7762 128.154 100.047C127.974 100.318 127.884 100.589 127.794 100.859C127.704 101.13 128.424 104.019 128.965 105.373Z" fill="white"/>
<path opacity="0.1" d="M128.424 104.47C128.785 104.38 129.145 104.47 129.415 104.65C129.685 104.921 129.865 105.192 130.045 105.553C130.316 105.914 130.406 106.365 130.406 106.817C130.406 106.997 130.316 107.088 130.226 107.178C130.045 107.358 129.775 107.358 129.505 107.268C129.325 107.178 129.145 107.088 129.055 106.907C128.694 106.546 128.424 106.095 128.154 105.553C128.064 105.373 127.974 105.192 127.974 104.921C127.974 104.831 128.154 104.56 128.424 104.47Z" fill="#1D1D1B"/>
<path d="M134.999 100.408C133.378 102.935 134.819 103.658 132.207 105.734C132.477 105.011 132.567 104.289 132.567 103.567C132.567 102.935 132.747 102.394 132.928 101.852C133.378 101.13 134.098 100.589 134.999 100.408Z" fill="#4A6097"/>
<path d="M126.082 98.1514C121.849 102.394 126.623 111.781 132.567 111.24C131.216 109.886 130.946 109.795 128.424 104.289C133.648 108.351 133.648 98.7833 136.71 99.3249C136.71 97.1585 131.757 93.2772 126.082 98.1514Z" fill="#4A6097"/>
<path fill-rule="evenodd" clip-rule="evenodd" d="M220.49 69.0703C206.412 69.0703 195 80.2448 195 94.0293V239.906H349V94.0293C349 80.2448 337.588 69.0703 323.51 69.0703H220.49ZM200.848 93.8841C200.848 83.3422 209.576 74.7963 220.342 74.7963H241.785V79.5682C241.785 82.7308 244.403 85.2946 247.633 85.2946H296.367C299.597 85.2946 302.215 82.7308 302.215 79.5682V74.7963H322.684C333.45 74.7963 342.177 83.3422 342.177 93.8841V239.906H200.848V93.8841Z" fill="#162344"/>
<path fill-rule="evenodd" clip-rule="evenodd" d="M220.856 74.5547C210.095 74.5547 201.372 83.1132 201.372 93.6707V239.908H342.628V93.6707C342.628 83.1132 333.905 74.5547 323.144 74.5547H302.686V79.3337C302.686 82.5009 300.07 85.0685 296.841 85.0685H248.133C244.905 85.0685 242.288 82.5009 242.288 79.3337V74.5547H220.856Z" fill="white"/>
<mask id="mask1_2_4" style="mask-type:alpha" maskUnits="userSpaceOnUse" x="201" y="74" width="139" height="166">
<path fill-rule="evenodd" clip-rule="evenodd" d="M220.317 74.5534C209.781 74.5534 201.24 83.1119 201.24 93.6694V239.907H339.554V93.6694C339.554 83.1119 331.012 74.5534 320.476 74.5534H300.444V79.3324C300.444 82.4997 297.882 85.0672 294.721 85.0672H247.026C243.865 85.0672 241.303 82.4997 241.303 79.3324V74.5534H220.317Z" fill="white"/>
</mask>
<g mask="url(#mask1_2_4)">
<rect x="210" y="136.07" width="60" height="38.256" rx="3" fill="#8180B4"/>
<rect x="210" y="178.07" width="60" height="38.256" rx="3" fill="#4B90F1"/>
<rect x="210" y="220.07" width="60" height="38.256" rx="3" fill="#B0A3FF"/>
<rect x="274" y="178.07" width="60" height="38.256" rx="3" fill="#9AE0F5"/>
<rect x="274" y="220.07" width="60" height="38.256" rx="3" fill="#FFE7D9"/>
<rect x="274" y="136.07" width="60" height="38.256" rx="3" fill="#FFD98F"/>
</g>
<path d="M213.679 106.472C213.408 106.472 213.167 106.525 212.957 106.632C212.75 106.735 212.575 106.886 212.431 107.084C212.291 107.282 212.185 107.522 212.111 107.802C212.038 108.082 212.002 108.397 212.002 108.748C212.002 109.22 212.06 109.624 212.175 109.959C212.294 110.291 212.477 110.545 212.724 110.722C212.971 110.896 213.289 110.983 213.679 110.983C213.95 110.983 214.221 110.952 214.492 110.891C214.767 110.83 215.064 110.743 215.384 110.631V111.819C215.088 111.941 214.797 112.028 214.511 112.079C214.224 112.134 213.903 112.162 213.546 112.162C212.858 112.162 212.291 112.02 211.846 111.737C211.405 111.45 211.077 111.051 210.864 110.539C210.65 110.024 210.544 109.424 210.544 108.739C210.544 108.233 210.612 107.77 210.75 107.349C210.887 106.929 211.088 106.565 211.353 106.257C211.618 105.949 211.945 105.712 212.335 105.544C212.725 105.377 213.173 105.293 213.679 105.293C214.011 105.293 214.343 105.335 214.675 105.421C215.01 105.503 215.33 105.617 215.635 105.764L215.178 106.915C214.928 106.796 214.677 106.693 214.424 106.604C214.171 106.516 213.923 106.472 213.679 106.472ZM218.793 106.856C219.478 106.856 220.004 107.005 220.37 107.304C220.735 107.602 220.918 108.056 220.918 108.666V112.07H219.945L219.675 111.376H219.638C219.492 111.558 219.343 111.708 219.191 111.824C219.038 111.939 218.863 112.025 218.665 112.079C218.467 112.134 218.226 112.162 217.943 112.162C217.641 112.162 217.37 112.104 217.129 111.988C216.892 111.872 216.704 111.696 216.567 111.458C216.43 111.217 216.362 110.913 216.362 110.544C216.362 110.002 216.552 109.602 216.933 109.347C217.314 109.088 217.885 108.944 218.647 108.917L219.533 108.89V108.666C219.533 108.397 219.463 108.201 219.323 108.076C219.183 107.951 218.988 107.889 218.738 107.889C218.491 107.889 218.249 107.924 218.011 107.994C217.774 108.064 217.536 108.152 217.298 108.259L216.837 107.317C217.108 107.174 217.411 107.061 217.746 106.979C218.085 106.897 218.433 106.856 218.793 106.856ZM219.533 109.703L218.994 109.721C218.543 109.733 218.229 109.814 218.053 109.963C217.879 110.113 217.792 110.309 217.792 110.553C217.792 110.766 217.855 110.919 217.979 111.01C218.104 111.098 218.267 111.143 218.468 111.143C218.767 111.143 219.018 111.054 219.223 110.878C219.43 110.701 219.533 110.449 219.533 110.123V109.703ZM224.51 111.051C224.662 111.051 224.81 111.036 224.953 111.005C225.1 110.975 225.244 110.937 225.388 110.891V111.929C225.238 111.996 225.052 112.051 224.83 112.093C224.611 112.139 224.37 112.162 224.108 112.162C223.803 112.162 223.529 112.113 223.285 112.015C223.045 111.915 222.854 111.743 222.714 111.499C222.577 111.252 222.508 110.91 222.508 110.471V108.007H221.841V107.418L222.609 106.952L223.011 105.873H223.902V106.961H225.333V108.007H223.902V110.471C223.902 110.666 223.957 110.812 224.067 110.91C224.18 111.004 224.327 111.051 224.51 111.051ZM228.532 106.865C229.004 106.865 229.411 106.956 229.752 107.139C230.093 107.319 230.357 107.581 230.543 107.925C230.729 108.269 230.821 108.69 230.821 109.187V109.863H227.526C227.542 110.256 227.659 110.565 227.878 110.791C228.101 111.013 228.408 111.124 228.801 111.124C229.127 111.124 229.426 111.091 229.697 111.024C229.968 110.957 230.247 110.856 230.534 110.722V111.801C230.281 111.926 230.016 112.017 229.738 112.075C229.464 112.133 229.131 112.162 228.738 112.162C228.226 112.162 227.772 112.067 227.376 111.878C226.983 111.689 226.673 111.402 226.448 111.015C226.225 110.628 226.114 110.14 226.114 109.552C226.114 108.955 226.215 108.458 226.416 108.062C226.62 107.663 226.903 107.365 227.266 107.167C227.628 106.965 228.05 106.865 228.532 106.865ZM228.541 107.857C228.27 107.857 228.044 107.943 227.865 108.117C227.688 108.291 227.586 108.564 227.558 108.935H229.514C229.511 108.728 229.473 108.544 229.4 108.382C229.33 108.221 229.223 108.093 229.08 107.998C228.94 107.904 228.76 107.857 228.541 107.857ZM233.449 114.319C232.736 114.319 232.191 114.194 231.813 113.944C231.438 113.697 231.251 113.35 231.251 112.902C231.251 112.594 231.347 112.337 231.539 112.13C231.731 111.923 232.013 111.775 232.384 111.686C232.241 111.625 232.116 111.526 232.01 111.389C231.903 111.249 231.85 111.101 231.85 110.946C231.85 110.751 231.906 110.59 232.019 110.462C232.132 110.331 232.295 110.203 232.508 110.078C232.24 109.962 232.026 109.776 231.868 109.52C231.713 109.264 231.635 108.963 231.635 108.615C231.635 108.244 231.716 107.928 231.877 107.669C232.042 107.407 232.279 107.208 232.59 107.071C232.904 106.933 233.285 106.865 233.733 106.865C233.827 106.865 233.937 106.871 234.062 106.883C234.187 106.895 234.301 106.909 234.404 106.924C234.511 106.94 234.583 106.952 234.619 106.961H236.402V107.669L235.602 107.875C235.675 107.988 235.73 108.108 235.766 108.236C235.803 108.364 235.821 108.5 235.821 108.643C235.821 109.191 235.629 109.619 235.245 109.927C234.865 110.232 234.334 110.384 233.655 110.384C233.493 110.375 233.341 110.363 233.198 110.347C233.128 110.402 233.075 110.46 233.038 110.521C233.001 110.582 232.983 110.646 232.983 110.713C232.983 110.78 233.011 110.836 233.065 110.882C233.123 110.925 233.209 110.958 233.321 110.983C233.437 111.004 233.58 111.015 233.751 111.015H234.619C235.18 111.015 235.606 111.135 235.899 111.376C236.194 111.616 236.342 111.97 236.342 112.436C236.342 113.033 236.092 113.496 235.593 113.825C235.096 114.154 234.382 114.319 233.449 114.319ZM233.509 113.409C233.841 113.409 234.126 113.377 234.363 113.313C234.604 113.252 234.788 113.164 234.916 113.048C235.044 112.936 235.108 112.8 235.108 112.642C235.108 112.514 235.07 112.412 234.994 112.335C234.921 112.262 234.808 112.21 234.656 112.18C234.507 112.15 234.315 112.134 234.08 112.134H233.358C233.187 112.134 233.033 112.162 232.896 112.217C232.762 112.271 232.656 112.348 232.576 112.445C232.497 112.546 232.458 112.661 232.458 112.792C232.458 112.984 232.549 113.135 232.732 113.245C232.918 113.355 233.177 113.409 233.509 113.409ZM233.733 109.534C233.995 109.534 234.187 109.453 234.308 109.292C234.43 109.13 234.491 108.911 234.491 108.634C234.491 108.326 234.427 108.096 234.299 107.943C234.174 107.788 233.986 107.71 233.733 107.71C233.477 107.71 233.285 107.788 233.157 107.943C233.029 108.096 232.965 108.326 232.965 108.634C232.965 108.911 233.027 109.13 233.152 109.292C233.28 109.453 233.474 109.534 233.733 109.534ZM241.89 109.506C241.89 109.933 241.832 110.311 241.717 110.64C241.604 110.969 241.438 111.248 241.219 111.476C241.002 111.702 240.74 111.872 240.432 111.988C240.128 112.104 239.783 112.162 239.4 112.162C239.04 112.162 238.71 112.104 238.408 111.988C238.109 111.872 237.849 111.702 237.626 111.476C237.407 111.248 237.236 110.969 237.115 110.64C236.996 110.311 236.936 109.933 236.936 109.506C236.936 108.94 237.037 108.46 237.238 108.067C237.439 107.674 237.725 107.375 238.097 107.171C238.469 106.967 238.912 106.865 239.427 106.865C239.905 106.865 240.329 106.967 240.698 107.171C241.069 107.375 241.36 107.674 241.57 108.067C241.784 108.46 241.89 108.94 241.89 109.506ZM238.358 109.506C238.358 109.842 238.394 110.123 238.467 110.352C238.54 110.58 238.655 110.753 238.81 110.868C238.965 110.984 239.168 111.042 239.418 111.042C239.665 111.042 239.864 110.984 240.017 110.868C240.172 110.753 240.285 110.58 240.355 110.352C240.428 110.123 240.464 109.842 240.464 109.506C240.464 109.168 240.428 108.888 240.355 108.666C240.285 108.44 240.172 108.271 240.017 108.158C239.861 108.046 239.659 107.989 239.409 107.989C239.04 107.989 238.772 108.116 238.604 108.369C238.44 108.621 238.358 109.001 238.358 109.506ZM245.894 106.865C245.964 106.865 246.045 106.87 246.136 106.879C246.23 106.885 246.307 106.894 246.364 106.906L246.259 108.213C246.214 108.198 246.148 108.187 246.063 108.181C245.981 108.172 245.909 108.167 245.848 108.167C245.668 108.167 245.493 108.19 245.322 108.236C245.155 108.282 245.004 108.356 244.87 108.46C244.736 108.56 244.629 108.695 244.55 108.862C244.474 109.027 244.436 109.229 244.436 109.47V112.07H243.042V106.961H244.098L244.303 107.82H244.372C244.472 107.646 244.597 107.488 244.747 107.345C244.899 107.199 245.071 107.083 245.263 106.997C245.458 106.909 245.668 106.865 245.894 106.865ZM248.686 106.961V112.07H247.292V106.961H248.686ZM247.991 104.959C248.199 104.959 248.377 105.008 248.526 105.105C248.675 105.2 248.75 105.378 248.75 105.64C248.75 105.899 248.675 106.079 248.526 106.179C248.377 106.277 248.199 106.326 247.991 106.326C247.781 106.326 247.601 106.277 247.452 106.179C247.306 106.079 247.233 105.899 247.233 105.64C247.233 105.378 247.306 105.2 247.452 105.105C247.601 105.008 247.781 104.959 247.991 104.959ZM252.26 106.865C252.732 106.865 253.139 106.956 253.48 107.139C253.821 107.319 254.085 107.581 254.271 107.925C254.457 108.269 254.55 108.69 254.55 109.187V109.863H251.254C251.27 110.256 251.387 110.565 251.606 110.791C251.829 111.013 252.137 111.124 252.53 111.124C252.856 111.124 253.154 111.091 253.425 111.024C253.696 110.957 253.975 110.856 254.262 110.722V111.801C254.009 111.926 253.744 112.017 253.466 112.075C253.192 112.133 252.859 112.162 252.466 112.162C251.954 112.162 251.5 112.067 251.104 111.878C250.711 111.689 250.401 111.402 250.176 111.015C249.954 110.628 249.842 110.14 249.842 109.552C249.842 108.955 249.943 108.458 250.144 108.062C250.348 107.663 250.631 107.365 250.994 107.167C251.357 106.965 251.779 106.865 252.26 106.865ZM252.269 107.857C251.998 107.857 251.772 107.943 251.593 108.117C251.416 108.291 251.314 108.564 251.286 108.935H253.242C253.239 108.728 253.201 108.544 253.128 108.382C253.058 108.221 252.952 108.093 252.808 107.998C252.668 107.904 252.488 107.857 252.269 107.857ZM259.248 110.553C259.248 110.9 259.165 111.194 259.001 111.435C258.839 111.673 258.597 111.854 258.274 111.979C257.951 112.101 257.549 112.162 257.068 112.162C256.711 112.162 256.405 112.139 256.149 112.093C255.896 112.047 255.64 111.971 255.381 111.865V110.713C255.659 110.838 255.956 110.941 256.272 111.024C256.592 111.103 256.873 111.143 257.113 111.143C257.385 111.143 257.578 111.103 257.694 111.024C257.813 110.941 257.872 110.835 257.872 110.704C257.872 110.619 257.848 110.542 257.799 110.475C257.753 110.405 257.653 110.328 257.497 110.242C257.342 110.154 257.098 110.04 256.766 109.9C256.446 109.765 256.183 109.63 255.975 109.493C255.771 109.356 255.619 109.194 255.518 109.008C255.421 108.819 255.372 108.58 255.372 108.291C255.372 107.819 255.555 107.464 255.921 107.226C256.289 106.985 256.781 106.865 257.397 106.865C257.714 106.865 258.015 106.897 258.302 106.961C258.591 107.025 258.888 107.127 259.193 107.267L258.772 108.273C258.519 108.163 258.28 108.073 258.055 108.003C257.832 107.933 257.605 107.898 257.374 107.898C257.17 107.898 257.016 107.925 256.912 107.98C256.809 108.035 256.757 108.119 256.757 108.231C256.757 108.314 256.783 108.387 256.835 108.451C256.889 108.515 256.993 108.586 257.145 108.666C257.301 108.742 257.528 108.841 257.826 108.963C258.116 109.081 258.367 109.206 258.58 109.337C258.794 109.465 258.958 109.625 259.074 109.817C259.19 110.006 259.248 110.251 259.248 110.553Z" fill="#202353"/>
<rect x="210" y="120.07" width="29" height="8" rx="0.8" fill="#D8DCEB"/>
<path d="M332 114.069L330.207 112.277" stroke="#202353" stroke-miterlimit="10" stroke-linecap="round" stroke-linejoin="round"/>
<path d="M327.585 113.24C329.565 113.24 331.17 111.635 331.17 109.655C331.17 107.675 329.565 106.07 327.585 106.07C325.605 106.07 324 107.675 324 109.655C324 111.635 325.605 113.24 327.585 113.24Z" stroke="#202353" stroke-miterlimit="10" stroke-linecap="round" stroke-linejoin="round"/>
<path d="M296.747 193.654C296.747 192.78 297.429 192.07 298.272 192.07V192.07C299.114 192.07 299.797 192.78 299.797 193.654V204.215C299.797 205.089 299.114 205.799 298.272 205.799V205.799C297.429 205.799 296.747 205.089 296.747 204.215V193.654Z" fill="white"/>
<path d="M294 196.188C294 195.599 294.478 195.121 295.068 195.121V195.121C295.657 195.121 296.135 195.599 296.135 196.188V202.595C296.135 203.185 295.657 203.663 295.068 203.663V203.663C294.478 203.663 294 203.185 294 202.595V196.188Z" fill="white"/>
<path d="M308.644 193.654C308.644 192.78 309.327 192.07 310.169 192.07V192.07C311.012 192.07 311.695 192.78 311.695 193.654V204.214C311.695 205.089 311.012 205.798 310.169 205.798V205.798C309.327 205.798 308.644 205.089 308.644 204.214V193.654Z" fill="white"/>
<path d="M314.441 202.597C314.441 203.187 313.963 203.665 313.373 203.665V203.665C312.784 203.665 312.306 203.187 312.306 202.597L312.306 196.191C312.306 195.601 312.784 195.123 313.373 195.123V195.123C313.963 195.123 314.441 195.601 314.441 196.191L314.441 202.597Z" fill="white"/>
<path d="M299.153 197.455H309.565V200.687H299.153V197.455Z" fill="white"/>
<path fill-rule="evenodd" clip-rule="evenodd" d="M303.464 164.401C306.814 164.401 309.529 161.685 309.529 158.336C309.529 154.986 306.814 152.271 303.464 152.271C300.115 152.271 297.4 154.986 297.4 158.336C297.4 161.685 300.115 164.401 303.464 164.401ZM303.464 165.8C307.587 165.8 310.929 162.458 310.929 158.336C310.929 154.213 307.587 150.871 303.464 150.871C299.342 150.871 296 154.213 296 158.336C296 162.458 299.342 165.8 303.464 165.8Z" fill="white"/>
<path d="M302.531 149.003H304.397V151.802H302.531V149.003Z" fill="white"/>
<path d="M301.131 148.07H305.797V149.47H301.131V148.07Z" fill="white"/>
<path d="M304.397 158.333C304.397 158.848 303.979 159.266 303.464 159.266C302.949 159.266 302.531 158.848 302.531 158.333C302.531 157.817 302.949 157.4 303.464 157.4C303.979 157.4 304.397 157.817 304.397 158.333Z" fill="white"/>
<path fill-rule="evenodd" clip-rule="evenodd" d="M303.464 153.437C303.593 153.437 303.698 153.541 303.698 153.67V158.239L306.895 161.436C306.986 161.527 306.986 161.675 306.895 161.766C306.804 161.857 306.656 161.857 306.565 161.766L303.231 158.432V153.67C303.231 153.541 303.336 153.437 303.464 153.437Z" fill="white"/>
<path fill-rule="evenodd" clip-rule="evenodd" d="M232.89 152.297L237.132 158.159C237.806 159.09 239.194 159.09 239.867 158.159L244.11 152.297C244.915 151.185 244.118 149.631 242.742 149.631L234.258 149.631C232.882 149.631 232.085 151.185 232.89 152.297ZM236.221 158.816C237.343 160.366 239.657 160.366 240.779 158.816L245.021 152.953C246.363 151.099 245.035 148.509 242.742 148.509L234.258 148.509C231.965 148.509 230.637 151.099 231.979 152.953L236.221 158.816Z" fill="white"/>
<path fill-rule="evenodd" clip-rule="evenodd" d="M233.248 152.041L237.49 157.903C237.987 158.59 239.013 158.59 239.51 157.903L243.752 152.041C244.345 151.222 243.76 150.074 242.742 150.074L234.258 150.074C233.24 150.074 232.655 151.222 233.248 152.041ZM241.137 159.076C239.839 160.87 237.161 160.87 235.863 159.076L231.621 153.214C230.067 151.066 231.608 148.07 234.258 148.07L242.742 148.07C245.392 148.07 246.933 151.066 245.379 153.214L241.137 159.076ZM237.132 158.161L232.89 152.299C232.085 151.187 232.882 149.633 234.258 149.633L242.742 149.633C244.118 149.633 244.915 151.187 244.11 152.299L239.868 158.161C239.194 159.092 237.806 159.092 237.132 158.161ZM240.779 158.818C239.657 160.368 237.343 160.368 236.221 158.818L231.979 152.955C230.637 151.101 231.965 148.511 234.258 148.511L242.742 148.511C245.035 148.511 246.363 151.101 245.021 152.955L240.779 158.818Z" fill="white"/>
<circle cx="238.5" cy="159.538" r="6.61678" fill="white"/>
<path d="M233.129 201.596L234.388 199.417L244.196 205.079L242.938 207.259L233.129 201.596Z" fill="white"/>
<path d="M238.792 191.789L240.051 189.609L249.859 195.272L248.6 197.452L238.792 191.789Z" fill="white"/>
<path d="M234.388 199.418C234.99 199.765 235.196 200.535 234.848 201.137C234.501 201.739 233.731 201.945 233.129 201.597C232.528 201.25 232.321 200.48 232.669 199.878C233.016 199.277 233.786 199.07 234.388 199.418Z" fill="white"/>
<path d="M240.051 189.607C240.652 189.955 240.859 190.724 240.511 191.326C240.164 191.928 239.394 192.134 238.792 191.787C238.19 191.439 237.984 190.67 238.332 190.068C238.679 189.466 239.449 189.26 240.051 189.607Z" fill="white"/>
<path d="M238.497 189.986L238.547 189.899L238.46 189.849C237.1 189.064 235.485 188.851 233.968 189.258C232.451 189.664 231.158 190.656 230.373 192.016C229.588 193.376 229.376 194.991 229.782 196.508C230.188 198.025 231.18 199.318 232.54 200.103L232.627 200.153L232.677 200.066L232.834 199.794L232.884 199.707L232.798 199.657C231.556 198.94 230.65 197.76 230.279 196.375C229.908 194.99 230.102 193.515 230.819 192.273C231.536 191.032 232.716 190.126 234.101 189.755C235.486 189.384 236.961 189.578 238.203 190.295L238.29 190.345L238.34 190.258L238.497 189.986Z" fill="white" stroke="white" stroke-width="0.2"/>
<path d="M233.198 192.672C233.756 192.994 234.178 193.389 234.416 193.75C234.669 194.133 234.65 194.361 234.596 194.453C234.543 194.546 234.355 194.676 233.897 194.649C233.465 194.623 232.912 194.455 232.354 194.133C231.796 193.811 231.374 193.415 231.136 193.055C230.883 192.672 230.902 192.443 230.955 192.351C231.008 192.259 231.197 192.128 231.655 192.156C232.086 192.182 232.639 192.349 233.198 192.672ZM235.042 194.711C235.245 194.359 235.132 193.901 234.845 193.466C234.555 193.026 234.067 192.58 233.455 192.226C232.843 191.872 232.212 191.674 231.685 191.642C231.165 191.611 230.712 191.743 230.51 192.094C230.307 192.445 230.419 192.903 230.706 193.338C230.997 193.779 231.484 194.225 232.097 194.579C232.709 194.932 233.339 195.131 233.866 195.163C234.386 195.194 234.839 195.062 235.042 194.711Z" fill="white" stroke="white" stroke-width="0.2"/>
</svg>
